<?xml version="1.0" encoding="UTF-8"?>
<svg width="1214px" height="866px" viewBox="0 0 1214 866" version="1.1" xmlns="http://www.w3.org/2000/svg" xmlns:xlink="http://www.w3.org/1999/xlink">
    <!-- Generator: Sketch 51.2 (57519) - http://www.bohemiancoding.com/sketch -->
    <title>perceptron</title>
    <desc>Created with Sketch.</desc>
    <defs></defs>
    <g id="perceptron" stroke="none" stroke-width="1" fill="none" fill-rule="evenodd">
        <circle id="Oval" fill="#245466" fill-rule="nonzero" cx="275" cy="247" r="41"></circle>
        <circle id="Oval-Copy" fill="#245466" fill-rule="nonzero" cx="275" cy="396" r="41"></circle>
        <circle id="Oval-Copy-2" fill="#245466" fill-rule="nonzero" cx="275" cy="543" r="41"></circle>
        <path d="M470,293 L646,293 L646,499 L470,499 C453.431458,499 440,485.568542 440,469 L440,323 C440,306.431458 453.431458,293 470,293 Z" id="Rectangle-3" fill="#245466" fill-rule="nonzero"></path>
        <path d="M650,293 L826,293 C842.568542,293 856,306.431458 856,323 L856,469 C856,485.568542 842.568542,499 826,499 L650,499 L650,293 Z" id="Rectangle-3-Copy" fill="#245466" fill-rule="nonzero"></path>
        <g id="Group" transform="translate(200.500000, 396.500000) rotate(-270.000000) translate(-200.500000, -396.500000) translate(10.000000, 367.000000)" stroke="#FFFFFF" stroke-linecap="round" stroke-width="2">
            <path d="M2.84217094e-14,58.0111005 C8.92027355e-14,33.7256806 17.5932552,33.7256806 86.7951598,33.7256806 C190.036364,33.7256806 190.036364,0 190.036364,0" id="Path-2" transform="translate(95.018182, 29.005550) scale(-1, 1) rotate(-180.000000) translate(-95.018182, -29.005550) "></path>
            <path d="M190.036364,58.0111005 C190.036364,33.7256806 207.629619,33.7256806 276.831523,33.7256806 C380.072727,33.7256806 380.072727,0 380.072727,0" id="Path-2" transform="translate(285.054545, 29.005550) rotate(-180.000000) translate(-285.054545, -29.005550) "></path>
        </g>
        <path d="M257.508301,252.370117 C257.508301,251.969725 257.620604,251.549807 257.845215,251.110352 C257.981934,250.86621 258.240721,250.744141 258.621582,250.744141 L259.310059,250.744141 C259.710451,250.744141 260.025389,250.739258 260.254883,250.729492 C260.484376,250.719727 260.674804,250.680664 260.826172,250.612305 C260.97754,250.543945 261.072754,250.5 261.111816,250.480469 C261.150879,250.460937 261.243652,250.382813 261.390137,250.246094 L269.812988,242.086914 L265.491699,234.425781 L263.719238,234.425781 C263.025875,234.425781 262.679199,234.21094 262.679199,233.78125 C262.679199,233.71289 262.728027,233.458987 262.825684,233.019531 C262.903809,232.63867 263.028319,232.399415 263.199219,232.301758 C263.370118,232.204101 263.685056,232.155273 264.144043,232.155273 C264.222168,232.155273 264.375975,232.160156 264.605469,232.169922 C264.834962,232.179688 265.032714,232.18457 265.19873,232.18457 L269.270996,232.18457 C269.808108,232.18457 270.081543,232.384764 270.091309,232.785156 C270.091309,232.960938 270.047364,233.22949 269.959473,233.59082 C269.900879,233.854494 269.817872,234.049804 269.710449,234.176758 C269.603027,234.303712 269.50293,234.376953 269.410156,234.396484 C269.317382,234.416016 269.163575,234.425781 268.94873,234.425781 L272.039551,239.889648 L277.679199,234.425781 C277.220213,234.40625 276.990723,234.196291 276.990723,233.795898 C276.990723,233.67871 277.029785,233.439455 277.10791,233.078125 C277.205567,232.716795 277.315429,232.47754 277.4375,232.360352 C277.559571,232.243163 277.786619,232.18457 278.118652,232.18457 L283.406738,232.18457 C283.963382,232.18457 284.241699,232.394529 284.241699,232.814453 C284.241699,233.234377 284.144044,233.644529 283.94873,234.044922 C283.831542,234.298829 283.572756,234.425781 283.172363,234.425781 L282.894043,234.425781 C281.937007,234.425781 281.343751,234.445312 281.114258,234.484375 C280.884764,234.523438 280.64795,234.655272 280.403809,234.879883 L273.16748,241.896484 L278.177246,250.744141 L279.949707,250.744141 C280.652836,250.744141 281.004395,250.954099 281.004395,251.374023 C281.004395,251.452149 280.955567,251.715818 280.85791,252.165039 C280.799316,252.38965 280.743164,252.545898 280.689453,252.633789 C280.635742,252.72168 280.550294,252.804687 280.433105,252.882812 C280.315917,252.960938 280.135255,253 279.891113,253 L274.397949,253 C273.860837,253 273.592285,252.790041 273.592285,252.370117 C273.592285,252.213866 273.631347,251.95508 273.709473,251.59375 C273.807129,251.212889 273.926757,250.976075 274.068359,250.883301 C274.209962,250.790527 274.432127,250.744141 274.734863,250.744141 L270.955566,244.064453 L264.085449,250.744141 C264.544436,250.763672 264.773926,250.973631 264.773926,251.374023 C264.773926,251.530274 264.734864,251.774412 264.656738,252.106445 C264.578613,252.487307 264.473633,252.731445 264.341797,252.838867 C264.20996,252.94629 263.973146,253 263.631348,253 L258.35791,253 C257.791501,253 257.508301,252.790041 257.508301,252.370117 Z" id="X" fill="#37C3BE"></path>
        <path d="M351.650879,280.463867 C351.650879,280.219725 351.770507,279.843753 352.009766,279.335938 C352.249025,278.828122 352.573728,278.29346 352.983887,277.731934 C353.394045,277.170407 353.945797,276.684572 354.63916,276.274414 C355.332523,275.864256 356.060055,275.65918 356.821777,275.65918 C357.817876,275.65918 358.582029,275.935056 359.114258,276.486816 C359.646487,277.038577 359.912598,277.661129 359.912598,278.354492 C359.912598,278.754885 359.565921,279.8413 358.872559,281.61377 C358.179196,283.386239 357.83252,284.702144 357.83252,285.561523 C357.83252,287.124031 358.765127,287.905273 360.630371,287.905273 C361.968268,287.905273 362.964352,286.59181 363.618652,283.964844 C364.780768,279.287086 365.400879,276.870118 365.479004,276.713867 C365.78174,276.137692 366.245602,275.844727 366.870605,275.834961 C367.192873,275.834961 367.451659,275.930175 367.646973,276.120605 C367.842286,276.311036 367.939941,276.567381 367.939941,276.889648 C367.939941,277.13379 367.610355,278.51073 366.951172,281.020508 C366.291989,283.530286 365.962402,285.073239 365.962402,285.649414 C365.962402,286.469731 366.213865,287.05078 366.716797,287.392578 C367.219729,287.734377 367.817868,287.905273 368.51123,287.905273 C369.390141,287.905273 370.11279,287.353521 370.679199,286.25 C371.040529,285.52734 371.440916,284.372567 371.880371,282.785645 C372.319826,281.198723 372.539551,280.06348 372.539551,279.379883 C372.539551,278.901365 372.44922,278.471682 372.268555,278.09082 C372.08789,277.709959 371.997559,277.441407 371.997559,277.285156 C371.997559,276.845701 372.183104,276.464845 372.554199,276.142578 C372.925295,275.820311 373.301268,275.65918 373.682129,275.65918 C374.141116,275.65918 374.504881,275.88867 374.773438,276.347656 C375.041994,276.806643 375.17627,277.436519 375.17627,278.237305 C375.17627,278.618166 375.105469,279.223629 374.963867,280.053711 C374.822265,280.883793 374.578127,281.889643 374.231445,283.071289 C373.884764,284.252936 373.464846,285.363764 372.97168,286.403809 C372.478513,287.443853 371.812016,288.332516 370.972168,289.069824 C370.13232,289.807133 369.21436,290.175781 368.218262,290.175781 L368.101074,290.175781 C366.060048,290.175781 364.64893,289.565436 363.867676,288.344727 C362.764155,289.565436 361.57276,290.175781 360.293457,290.175781 C358.828606,290.175781 357.612798,289.860843 356.645996,289.230957 C355.679194,288.601071 355.195801,287.53907 355.195801,286.044922 C355.195801,284.980463 355.53027,283.532724 356.199219,281.70166 C356.868167,279.870596 357.202637,278.886719 357.202637,278.75 C357.202637,278.212888 356.94385,277.944336 356.42627,277.944336 C355.967283,277.944336 355.527834,278.168943 355.10791,278.618164 C354.687986,279.067385 354.355958,279.663082 354.111816,280.405273 C354.033691,280.600587 353.950684,280.727539 353.862793,280.786133 C353.774902,280.844727 353.618653,280.874023 353.394043,280.874023 L352.368652,280.874023 C351.890134,280.874023 351.650879,280.737306 351.650879,280.463867 Z" id="w" fill="#37C3BE"></path>
        <path d="M351.650879,411.463867 C351.650879,411.219725 351.770507,410.843753 352.009766,410.335938 C352.249025,409.828122 352.573728,409.29346 352.983887,408.731934 C353.394045,408.170407 353.945797,407.684572 354.63916,407.274414 C355.332523,406.864256 356.060055,406.65918 356.821777,406.65918 C357.817876,406.65918 358.582029,406.935056 359.114258,407.486816 C359.646487,408.038577 359.912598,408.661129 359.912598,409.354492 C359.912598,409.754885 359.565921,410.8413 358.872559,412.61377 C358.179196,414.386239 357.83252,415.702144 357.83252,416.561523 C357.83252,418.124031 358.765127,418.905273 360.630371,418.905273 C361.968268,418.905273 362.964352,417.59181 363.618652,414.964844 C364.780768,410.287086 365.400879,407.870118 365.479004,407.713867 C365.78174,407.137692 366.245602,406.844727 366.870605,406.834961 C367.192873,406.834961 367.451659,406.930175 367.646973,407.120605 C367.842286,407.311036 367.939941,407.567381 367.939941,407.889648 C367.939941,408.13379 367.610355,409.51073 366.951172,412.020508 C366.291989,414.530286 365.962402,416.073239 365.962402,416.649414 C365.962402,417.469731 366.213865,418.05078 366.716797,418.392578 C367.219729,418.734377 367.817868,418.905273 368.51123,418.905273 C369.390141,418.905273 370.11279,418.353521 370.679199,417.25 C371.040529,416.52734 371.440916,415.372567 371.880371,413.785645 C372.319826,412.198723 372.539551,411.06348 372.539551,410.379883 C372.539551,409.901365 372.44922,409.471682 372.268555,409.09082 C372.08789,408.709959 371.997559,408.441407 371.997559,408.285156 C371.997559,407.845701 372.183104,407.464845 372.554199,407.142578 C372.925295,406.820311 373.301268,406.65918 373.682129,406.65918 C374.141116,406.65918 374.504881,406.88867 374.773438,407.347656 C375.041994,407.806643 375.17627,408.436519 375.17627,409.237305 C375.17627,409.618166 375.105469,410.223629 374.963867,411.053711 C374.822265,411.883793 374.578127,412.889643 374.231445,414.071289 C373.884764,415.252936 373.464846,416.363764 372.97168,417.403809 C372.478513,418.443853 371.812016,419.332516 370.972168,420.069824 C370.13232,420.807133 369.21436,421.175781 368.218262,421.175781 L368.101074,421.175781 C366.060048,421.175781 364.64893,420.565436 363.867676,419.344727 C362.764155,420.565436 361.57276,421.175781 360.293457,421.175781 C358.828606,421.175781 357.612798,420.860843 356.645996,420.230957 C355.679194,419.601071 355.195801,418.53907 355.195801,417.044922 C355.195801,415.980463 355.53027,414.532724 356.199219,412.70166 C356.868167,410.870596 357.202637,409.886719 357.202637,409.75 C357.202637,409.212888 356.94385,408.944336 356.42627,408.944336 C355.967283,408.944336 355.527834,409.168943 355.10791,409.618164 C354.687986,410.067385 354.355958,410.663082 354.111816,411.405273 C354.033691,411.600587 353.950684,411.727539 353.862793,411.786133 C353.774902,411.844727 353.618653,411.874023 353.394043,411.874023 L352.368652,411.874023 C351.890134,411.874023 351.650879,411.737306 351.650879,411.463867 Z" id="w-copy" fill="#37C3BE"></path>
        <path d="M351.650879,512.463867 C351.650879,512.219725 351.770507,511.843753 352.009766,511.335938 C352.249025,510.828122 352.573728,510.29346 352.983887,509.731934 C353.394045,509.170407 353.945797,508.684572 354.63916,508.274414 C355.332523,507.864256 356.060055,507.65918 356.821777,507.65918 C357.817876,507.65918 358.582029,507.935056 359.114258,508.486816 C359.646487,509.038577 359.912598,509.661129 359.912598,510.354492 C359.912598,510.754885 359.565921,511.8413 358.872559,513.61377 C358.179196,515.386239 357.83252,516.702144 357.83252,517.561523 C357.83252,519.124031 358.765127,519.905273 360.630371,519.905273 C361.968268,519.905273 362.964352,518.59181 363.618652,515.964844 C364.780768,511.287086 365.400879,508.870118 365.479004,508.713867 C365.78174,508.137692 366.245602,507.844727 366.870605,507.834961 C367.192873,507.834961 367.451659,507.930175 367.646973,508.120605 C367.842286,508.311036 367.939941,508.567381 367.939941,508.889648 C367.939941,509.13379 367.610355,510.51073 366.951172,513.020508 C366.291989,515.530286 365.962402,517.073239 365.962402,517.649414 C365.962402,518.469731 366.213865,519.05078 366.716797,519.392578 C367.219729,519.734377 367.817868,519.905273 368.51123,519.905273 C369.390141,519.905273 370.11279,519.353521 370.679199,518.25 C371.040529,517.52734 371.440916,516.372567 371.880371,514.785645 C372.319826,513.198723 372.539551,512.06348 372.539551,511.379883 C372.539551,510.901365 372.44922,510.471682 372.268555,510.09082 C372.08789,509.709959 371.997559,509.441407 371.997559,509.285156 C371.997559,508.845701 372.183104,508.464845 372.554199,508.142578 C372.925295,507.820311 373.301268,507.65918 373.682129,507.65918 C374.141116,507.65918 374.504881,507.88867 374.773438,508.347656 C375.041994,508.806643 375.17627,509.436519 375.17627,510.237305 C375.17627,510.618166 375.105469,511.223629 374.963867,512.053711 C374.822265,512.883793 374.578127,513.889643 374.231445,515.071289 C373.884764,516.252936 373.464846,517.363764 372.97168,518.403809 C372.478513,519.443853 371.812016,520.332516 370.972168,521.069824 C370.13232,521.807133 369.21436,522.175781 368.218262,522.175781 L368.101074,522.175781 C366.060048,522.175781 364.64893,521.565436 363.867676,520.344727 C362.764155,521.565436 361.57276,522.175781 360.293457,522.175781 C358.828606,522.175781 357.612798,521.860843 356.645996,521.230957 C355.679194,520.601071 355.195801,519.53907 355.195801,518.044922 C355.195801,516.980463 355.53027,515.532724 356.199219,513.70166 C356.868167,511.870596 357.202637,510.886719 357.202637,510.75 C357.202637,510.212888 356.94385,509.944336 356.42627,509.944336 C355.967283,509.944336 355.527834,510.168943 355.10791,510.618164 C354.687986,511.067385 354.355958,511.663082 354.111816,512.405273 C354.033691,512.600587 353.950684,512.727539 353.862793,512.786133 C353.774902,512.844727 353.618653,512.874023 353.394043,512.874023 L352.368652,512.874023 C351.890134,512.874023 351.650879,512.737306 351.650879,512.463867 Z" id="w-copy-2" fill="#37C3BE"></path>
        <path d="M257.508301,400.370117 C257.508301,399.969725 257.620604,399.549807 257.845215,399.110352 C257.981934,398.86621 258.240721,398.744141 258.621582,398.744141 L259.310059,398.744141 C259.710451,398.744141 260.025389,398.739258 260.254883,398.729492 C260.484376,398.719727 260.674804,398.680664 260.826172,398.612305 C260.97754,398.543945 261.072754,398.5 261.111816,398.480469 C261.150879,398.460937 261.243652,398.382813 261.390137,398.246094 L269.812988,390.086914 L265.491699,382.425781 L263.719238,382.425781 C263.025875,382.425781 262.679199,382.21094 262.679199,381.78125 C262.679199,381.71289 262.728027,381.458987 262.825684,381.019531 C262.903809,380.63867 263.028319,380.399415 263.199219,380.301758 C263.370118,380.204101 263.685056,380.155273 264.144043,380.155273 C264.222168,380.155273 264.375975,380.160156 264.605469,380.169922 C264.834962,380.179688 265.032714,380.18457 265.19873,380.18457 L269.270996,380.18457 C269.808108,380.18457 270.081543,380.384764 270.091309,380.785156 C270.091309,380.960938 270.047364,381.22949 269.959473,381.59082 C269.900879,381.854494 269.817872,382.049804 269.710449,382.176758 C269.603027,382.303712 269.50293,382.376953 269.410156,382.396484 C269.317382,382.416016 269.163575,382.425781 268.94873,382.425781 L272.039551,387.889648 L277.679199,382.425781 C277.220213,382.40625 276.990723,382.196291 276.990723,381.795898 C276.990723,381.67871 277.029785,381.439455 277.10791,381.078125 C277.205567,380.716795 277.315429,380.47754 277.4375,380.360352 C277.559571,380.243163 277.786619,380.18457 278.118652,380.18457 L283.406738,380.18457 C283.963382,380.18457 284.241699,380.394529 284.241699,380.814453 C284.241699,381.234377 284.144044,381.644529 283.94873,382.044922 C283.831542,382.298829 283.572756,382.425781 283.172363,382.425781 L282.894043,382.425781 C281.937007,382.425781 281.343751,382.445312 281.114258,382.484375 C280.884764,382.523438 280.64795,382.655272 280.403809,382.879883 L273.16748,389.896484 L278.177246,398.744141 L279.949707,398.744141 C280.652836,398.744141 281.004395,398.954099 281.004395,399.374023 C281.004395,399.452149 280.955567,399.715818 280.85791,400.165039 C280.799316,400.38965 280.743164,400.545898 280.689453,400.633789 C280.635742,400.72168 280.550294,400.804687 280.433105,400.882812 C280.315917,400.960938 280.135255,401 279.891113,401 L274.397949,401 C273.860837,401 273.592285,400.790041 273.592285,400.370117 C273.592285,400.213866 273.631347,399.95508 273.709473,399.59375 C273.807129,399.212889 273.926757,398.976075 274.068359,398.883301 C274.209962,398.790527 274.432127,398.744141 274.734863,398.744141 L270.955566,392.064453 L264.085449,398.744141 C264.544436,398.763672 264.773926,398.973631 264.773926,399.374023 C264.773926,399.530274 264.734864,399.774412 264.656738,400.106445 C264.578613,400.487307 264.473633,400.731445 264.341797,400.838867 C264.20996,400.94629 263.973146,401 263.631348,401 L258.35791,401 C257.791501,401 257.508301,400.790041 257.508301,400.370117 Z" id="X-Copy" fill="#37C3BE"></path>
        <path d="M986.025391,388.927734 C986.025391,388.400388 986.279294,387.638677 986.787109,386.642578 C987.294924,385.646479 987.954098,384.58692 988.764648,383.463867 C989.575199,382.340815 990.673821,381.369145 992.060547,380.548828 C993.447273,379.728512 994.882805,379.318359 996.367188,379.318359 C998.320322,379.318359 999.838862,379.860346 1000.92285,380.944336 C1002.00684,382.028326 1002.54883,383.283196 1002.54883,384.708984 C1002.54883,385.548832 1001.84571,387.790021 1000.43945,391.432617 C999.033196,395.075214 998.330078,397.794913 998.330078,399.591797 C998.330078,402.38478 999.775376,403.791016 1002.66602,403.810547 C1003.81837,403.810547 1004.9121,403.468753 1005.94727,402.785156 C1006.98243,402.101559 1007.84179,401.227544 1008.52539,400.163086 C1009.20899,399.098627 1009.74121,398.170902 1010.12207,397.379883 C1010.50293,396.588863 1010.81055,395.832035 1011.04492,395.109375 C1011.08398,394.992187 1011.6455,392.750998 1012.72949,388.385742 C1013.81348,384.020486 1014.45312,381.681642 1014.64844,381.369141 C1015.29297,380.255854 1016.1914,379.689453 1017.34375,379.669922 C1017.94922,379.669922 1018.47168,379.870115 1018.91113,380.270508 C1019.35059,380.6709 1019.57031,381.173825 1019.57031,381.779297 C1019.57031,382.228518 1019.47266,382.746091 1019.27734,383.332031 L1013.44727,406.623047 L1013.33008,407.267578 C1013.21289,407.658205 1013.11523,407.975585 1013.03711,408.219727 C1012.95898,408.463868 1012.83691,408.859372 1012.6709,409.40625 C1012.50488,409.953128 1012.30469,410.426756 1012.07031,410.827148 C1011.83594,411.227541 1011.55762,411.715817 1011.23535,412.291992 C1010.91308,412.868167 1010.53223,413.395505 1010.09277,413.874023 C1009.65332,414.352541 1009.16504,414.865232 1008.62793,415.412109 C1008.09082,415.958987 1007.46094,416.471677 1006.73828,416.950195 C1006.01562,417.428713 1005.23438,417.863279 1004.39453,418.253906 C1001.99218,419.406256 999.570325,419.992187 997.128906,420.011719 C994.921864,420.011719 993.12989,419.528325 991.75293,418.561523 C990.37597,417.594722 989.6875,416.349617 989.6875,414.826172 C989.6875,413.673822 990.039059,412.736332 990.742188,412.013672 C991.445316,411.291012 992.294917,410.929688 993.291016,410.929688 C993.974613,410.929688 994.555662,411.139646 995.03418,411.55957 C995.512698,411.979494 995.751953,412.531247 995.751953,413.214844 C995.751953,413.74219 995.576174,414.367184 995.224609,415.089844 C995.986332,415.363283 996.845698,415.5 997.802734,415.5 C999.970714,415.5 1001.97265,414.831061 1003.80859,413.493164 C1005.64454,412.155267 1006.92382,410.519541 1007.64648,408.585938 C1007.80274,408.136717 1008.01758,407.345709 1008.29102,406.212891 C1006.08397,407.638679 1003.93556,408.351562 1001.8457,408.351562 L1001.75781,408.351562 C999.355457,408.351562 997.29493,407.750983 995.576172,406.549805 C993.857413,405.348627 992.998047,403.332045 992.998047,400.5 C992.998047,398.253895 993.686517,395.260761 995.063477,391.520508 C996.440437,387.780255 997.128906,385.773439 997.128906,385.5 C997.128906,385.011716 996.977541,384.621095 996.674805,384.328125 C996.372069,384.035155 996.005862,383.888672 995.576172,383.888672 C994.658199,383.888672 993.779301,384.357417 992.939453,385.294922 C992.099605,386.232427 991.435549,387.40429 990.947266,388.810547 C990.791015,389.201174 990.625001,389.455078 990.449219,389.572266 C990.273437,389.689454 989.96094,389.748047 989.511719,389.748047 L987.460938,389.748047 C986.503901,389.748047 986.025391,389.474612 986.025391,388.927734 Z" id="y" fill="#37C3BE"></path>
        <path d="M84.5124782,404 L82.3161892,404 L82.3161892,385.223633 L84.5124782,385.223633 L84.5124782,404 Z M89.6395037,404 L89.6395037,390.073242 L91.4168475,390.073242 L91.683449,392.066406 C92.233582,391.380856 92.9212379,390.828615 93.7464373,390.409668 C94.5716367,389.990721 95.4624156,389.78125 96.4188006,389.78125 C98.0268815,389.78125 99.2159973,390.231929 99.9861834,391.133301 C100.75637,392.034672 101.141457,393.420564 101.141457,395.291016 L101.141457,404 L99.0213397,404 C99.0213397,398.414035 99.0171079,395.422203 99.0086443,395.024414 C98.97479,393.839512 98.7356973,392.972008 98.2913592,392.421875 C97.847021,391.871742 97.1043527,391.59668 96.0633318,391.59668 C94.9715295,391.59668 94.0617079,391.859047 93.3338397,392.383789 C92.6059714,392.908531 92.1320178,393.58984 91.9119647,394.427734 C91.8273288,394.994795 91.7850115,395.646481 91.7850115,396.382812 L91.7850115,404 L89.6395037,404 Z M105.633717,410.042969 L105.633717,390.073242 L107.499928,390.073242 L107.703053,391.964844 C108.921809,390.509107 110.385987,389.78125 112.095631,389.78125 C113.365168,389.78125 114.440027,390.09863 115.32024,390.733398 C116.200453,391.368167 116.850023,392.227208 117.268971,393.310547 C117.687918,394.393886 117.897389,395.659172 117.897389,397.106445 C117.897389,398.494473 117.668875,399.728022 117.211842,400.807129 C116.754808,401.886236 116.084079,402.736813 115.199635,403.358887 C114.31519,403.98096 113.280533,404.291992 112.095631,404.291992 C111.198491,404.291992 110.356377,404.090985 109.569264,403.688965 C108.78215,403.286945 108.151623,402.755863 107.677662,402.095703 C107.728444,403.00977 107.753834,403.898433 107.753834,404.761719 L107.753834,409.90332 L105.633717,410.042969 Z M111.803639,402.501953 C112.446871,402.501953 113.022386,402.355958 113.530201,402.063965 C114.038016,401.771971 114.448494,401.372073 114.761646,400.864258 C115.074799,400.356443 115.311776,399.778812 115.472584,399.131348 C115.633392,398.483883 115.713795,397.783532 115.713795,397.030273 C115.713795,395.43912 115.379488,394.133631 114.710865,393.11377 C114.042242,392.093908 113.064713,391.583984 111.778248,391.583984 C109.086828,391.583984 107.741139,393.323225 107.741139,396.801758 C107.741139,398.689137 108.056402,400.110998 108.686939,401.067383 C109.317476,402.023768 110.356366,402.501953 111.803639,402.501953 Z M121.361328,399.353516 L121.361328,390.073242 L123.494141,390.073242 L123.494141,399.378906 C123.494141,399.988284 123.580891,400.504555 123.754395,400.927734 C123.927898,401.350914 124.17757,401.678873 124.503418,401.911621 C124.829266,402.14437 125.197426,402.311523 125.60791,402.413086 C126.018394,402.514649 126.490232,402.56543 127.023438,402.56543 C128.123703,402.56543 128.980628,402.324221 129.594238,401.841797 C130.207848,401.359373 130.514648,400.538417 130.514648,399.378906 L130.514648,390.073242 L132.647461,390.073242 L132.647461,399.353516 C132.647461,400.064457 132.545899,400.703448 132.342773,401.270508 C132.139647,401.837568 131.866701,402.309406 131.523926,402.686035 C131.181151,403.062665 130.768557,403.373697 130.286133,403.619141 C129.803709,403.864585 129.293785,404.042317 128.756348,404.152344 C128.21891,404.26237 127.641279,404.317383 127.023438,404.317383 C126.414059,404.317383 125.838544,404.26237 125.296875,404.152344 C124.755206,404.042317 124.241051,403.862469 123.754395,403.612793 C123.267738,403.363117 122.848797,403.049969 122.497559,402.67334 C122.14632,402.29671 121.869142,401.824873 121.666016,401.257812 C121.46289,400.690752 121.361328,400.055993 121.361328,399.353516 Z M141.214916,404.253906 C139.843816,404.253906 138.870518,403.9196 138.294994,403.250977 C137.719471,402.582353 137.414786,401.503263 137.380932,400.013672 L137.380932,391.647461 L135.311596,391.647461 L135.400463,390.250977 L137.368236,390.073242 L138.091869,386.886719 L139.488354,386.835938 L139.488354,390.073242 L143.360424,390.073242 L143.360424,391.647461 L139.488354,391.647461 L139.488354,399.632812 C139.488354,400.69076 139.649159,401.435545 139.970775,401.867188 C140.292392,402.29883 140.842516,402.514648 141.621166,402.514648 C141.900464,402.514648 142.505602,402.446941 143.436596,402.311523 L143.525463,403.987305 C142.518296,404.16504 141.748122,404.253906 141.214916,404.253906 Z M150.899559,404.291992 C149.951637,404.291992 149.077785,404.190431 148.277977,403.987305 C147.478168,403.784179 146.828598,403.521812 146.329246,403.200195 L146.595848,401.410156 C148.009266,402.163415 149.397273,402.540039 150.75991,402.540039 C152.825025,402.540039 153.887189,401.812182 153.946434,400.356445 C153.946434,399.738604 153.726384,399.251955 153.286278,398.896484 C152.846171,398.541014 151.982899,398.143231 150.696434,397.703125 L149.642723,397.334961 C148.423967,396.928709 147.554347,396.425133 147.033836,395.824219 C146.513326,395.223304 146.248843,394.474288 146.240379,393.577148 C146.240379,392.485346 146.678363,391.579756 147.554344,390.860352 C148.430325,390.140947 149.63002,389.78125 151.153465,389.78125 C152.727692,389.78125 154.162248,390.085934 155.457176,390.695312 L154.835106,392.320312 C153.52325,391.778643 152.296049,391.507812 151.153465,391.507812 C150.264789,391.507812 149.568669,391.683429 149.065086,392.034668 C148.561503,392.385907 148.309715,392.878903 148.309715,393.513672 C148.309715,394.055341 148.491679,394.470051 148.855613,394.757812 C149.219548,395.045574 149.947405,395.375649 151.039207,395.748047 C151.318505,395.84961 151.669739,395.968098 152.092918,396.103516 C153.497873,396.560549 154.492329,397.100095 155.076317,397.722168 C155.660304,398.344241 155.952293,399.18424 155.952293,400.242188 C155.935366,401.528652 155.474108,402.525224 154.568504,403.231934 C153.662901,403.938643 152.439931,404.291992 150.899559,404.291992 Z" id="Inputs" fill="#FFFFFF"></path>
        <path d="M1050.94558,396.618164 C1050.94558,399.030285 1051.49994,400.923984 1052.60867,402.299316 C1053.7174,403.674649 1055.35508,404.362305 1057.52176,404.362305 C1059.68843,404.362305 1061.31976,403.676765 1062.4158,402.305664 C1063.51183,400.934563 1064.05984,399.038749 1064.05984,396.618164 C1064.05984,394.146798 1063.5076,392.229825 1062.4031,390.867188 C1061.29861,389.50455 1059.67574,388.823242 1057.53445,388.823242 C1055.39316,388.823242 1053.75972,389.50455 1052.63406,390.867188 C1051.5084,392.229825 1050.94558,394.146798 1050.94558,396.618164 Z M1066.40847,396.618164 C1066.40847,398.04851 1066.2117,399.356114 1065.81814,400.541016 C1065.42459,401.725917 1064.85753,402.743648 1064.11697,403.594238 C1063.37641,404.444828 1062.44331,405.104978 1061.31765,405.574707 C1060.192,406.044436 1058.92671,406.279297 1057.52176,406.279297 C1055.62591,406.279297 1054.00304,405.875167 1052.6531,405.066895 C1051.30316,404.258622 1050.29178,403.132982 1049.61892,401.689941 C1048.94607,400.2469 1048.60965,398.552093 1048.60965,396.605469 C1048.60965,393.600896 1049.39252,391.231128 1050.95828,389.496094 C1052.52404,387.761059 1054.71608,386.893555 1057.53445,386.893555 C1060.31051,386.893555 1062.4835,387.767407 1064.05349,389.515137 C1065.62349,391.262867 1066.40847,393.630519 1066.40847,396.618164 Z M1070.12632,401.353516 L1070.12632,392.073242 L1072.25913,392.073242 L1072.25913,401.378906 C1072.25913,401.988284 1072.34588,402.504555 1072.51939,402.927734 C1072.69289,403.350914 1072.94256,403.678873 1073.26841,403.911621 C1073.59426,404.14437 1073.96242,404.311523 1074.3729,404.413086 C1074.78339,404.514649 1075.25522,404.56543 1075.78843,404.56543 C1076.8887,404.56543 1077.74562,404.324221 1078.35923,403.841797 C1078.97284,403.359373 1079.27964,402.538417 1079.27964,401.378906 L1079.27964,392.073242 L1081.41245,392.073242 L1081.41245,401.353516 C1081.41245,402.064457 1081.31089,402.703448 1081.10777,403.270508 C1080.90464,403.837568 1080.63169,404.309406 1080.28892,404.686035 C1079.94614,405.062665 1079.53355,405.373697 1079.05112,405.619141 C1078.5687,405.864585 1078.05878,406.042317 1077.52134,406.152344 C1076.9839,406.26237 1076.40627,406.317383 1075.78843,406.317383 C1075.17905,406.317383 1074.60354,406.26237 1074.06187,406.152344 C1073.5202,406.042317 1073.00604,405.862469 1072.51939,405.612793 C1072.03273,405.363117 1071.61379,405.049969 1071.26255,404.67334 C1070.91131,404.29671 1070.63413,403.824873 1070.43101,403.257812 C1070.22788,402.690752 1070.12632,402.055993 1070.12632,401.353516 Z M1089.97991,406.253906 C1088.60881,406.253906 1087.63551,405.9196 1087.05999,405.250977 C1086.48446,404.582353 1086.17978,403.503263 1086.14592,402.013672 L1086.14592,393.647461 L1084.07659,393.647461 L1084.16545,392.250977 L1086.13323,392.073242 L1086.85686,388.886719 L1088.25335,388.835938 L1088.25335,392.073242 L1092.12542,392.073242 L1092.12542,393.647461 L1088.25335,393.647461 L1088.25335,401.632812 C1088.25335,402.69076 1088.41415,403.435545 1088.73577,403.867188 C1089.05738,404.29883 1089.60751,404.514648 1090.38616,404.514648 C1090.66546,404.514648 1091.27059,404.446941 1092.20159,404.311523 L1092.29045,405.987305 C1091.28329,406.16504 1090.51311,406.253906 1089.97991,406.253906 Z M1095.51318,412.042969 L1095.51318,392.073242 L1097.37939,392.073242 L1097.58252,393.964844 C1098.80128,392.509107 1100.26545,391.78125 1101.9751,391.78125 C1103.24464,391.78125 1104.31949,392.09863 1105.19971,392.733398 C1106.07992,393.368167 1106.72949,394.227208 1107.14844,395.310547 C1107.56738,396.393886 1107.77686,397.659172 1107.77686,399.106445 C1107.77686,400.494473 1107.54834,401.728022 1107.09131,402.807129 C1106.63428,403.886236 1105.96355,404.736813 1105.0791,405.358887 C1104.19466,405.98096 1103.16,406.291992 1101.9751,406.291992 C1101.07796,406.291992 1100.23584,406.090985 1099.44873,405.688965 C1098.66162,405.286945 1098.03109,404.755863 1097.55713,404.095703 C1097.60791,405.00977 1097.6333,405.898433 1097.6333,406.761719 L1097.6333,411.90332 L1095.51318,412.042969 Z M1101.68311,404.501953 C1102.32634,404.501953 1102.90185,404.355958 1103.40967,404.063965 C1103.91748,403.771971 1104.32796,403.372073 1104.64111,402.864258 C1104.95427,402.356443 1105.19124,401.778812 1105.35205,401.131348 C1105.51286,400.483883 1105.59326,399.783532 1105.59326,399.030273 C1105.59326,397.43912 1105.25896,396.133631 1104.59033,395.11377 C1103.92171,394.093908 1102.94418,393.583984 1101.65771,393.583984 C1098.9663,393.583984 1097.62061,395.323225 1097.62061,398.801758 C1097.62061,400.689137 1097.93587,402.110998 1098.56641,403.067383 C1099.19694,404.023768 1100.23583,404.501953 1101.68311,404.501953 Z M1111.2408,401.353516 L1111.2408,392.073242 L1113.37361,392.073242 L1113.37361,401.378906 C1113.37361,401.988284 1113.46036,402.504555 1113.63386,402.927734 C1113.80736,403.350914 1114.05704,403.678873 1114.38288,403.911621 C1114.70873,404.14437 1115.07689,404.311523 1115.48738,404.413086 C1115.89786,404.514649 1116.3697,404.56543 1116.9029,404.56543 C1118.00317,404.56543 1118.8601,404.324221 1119.47371,403.841797 C1120.08732,403.359373 1120.39412,402.538417 1120.39412,401.378906 L1120.39412,392.073242 L1122.52693,392.073242 L1122.52693,401.353516 C1122.52693,402.064457 1122.42537,402.703448 1122.22224,403.270508 C1122.01911,403.837568 1121.74617,404.309406 1121.40339,404.686035 C1121.06062,405.062665 1120.64802,405.373697 1120.1656,405.619141 C1119.68318,405.864585 1119.17325,406.042317 1118.63581,406.152344 C1118.09838,406.26237 1117.52075,406.317383 1116.9029,406.317383 C1116.29353,406.317383 1115.71801,406.26237 1115.17634,406.152344 C1114.63467,406.042317 1114.12052,405.862469 1113.63386,405.612793 C1113.14721,405.363117 1112.72826,405.049969 1112.37703,404.67334 C1112.02579,404.29671 1111.74861,403.824873 1111.54548,403.257812 C1111.34236,402.690752 1111.2408,402.055993 1111.2408,401.353516 Z M1131.09438,406.253906 C1129.72328,406.253906 1128.74998,405.9196 1128.17446,405.250977 C1127.59894,404.582353 1127.29425,403.503263 1127.2604,402.013672 L1127.2604,393.647461 L1125.19106,393.647461 L1125.27993,392.250977 L1127.2477,392.073242 L1127.97134,388.886719 L1129.36782,388.835938 L1129.36782,392.073242 L1133.23989,392.073242 L1133.23989,393.647461 L1129.36782,393.647461 L1129.36782,401.632812 C1129.36782,402.69076 1129.52863,403.435545 1129.85024,403.867188 C1130.17186,404.29883 1130.72198,404.514648 1131.50063,404.514648 C1131.77993,404.514648 1132.38507,404.446941 1133.31606,404.311523 L1133.40493,405.987305 C1132.39776,406.16504 1131.62759,406.253906 1131.09438,406.253906 Z" id="Output" fill="#FFFFFF"></path>
        <path d="M488.790726,615 L483.128617,596.223633 L485.426468,596.223633 L490.072953,612.384766 L494.719437,596.566406 L497.195023,596.566406 L501.701859,612.397461 L506.386429,596.223633 L508.684281,596.223633 L502.946,615 L500.546586,615 L495.976273,599.219727 L491.177445,615 L488.790726,615 Z M516.363064,602.533203 C515.279725,602.533203 514.395294,602.916175 513.709744,603.682129 C513.024194,604.448083 512.622179,605.495436 512.503689,606.824219 L519.854275,606.824219 C519.854275,605.444655 519.543243,604.384607 518.92117,603.644043 C518.299096,602.903479 517.446403,602.533203 516.363064,602.533203 Z M516.782009,615.291992 C514.759213,615.291992 513.165967,614.648769 512.002224,613.362305 C510.838482,612.07584 510.256619,610.315441 510.256619,608.081055 C510.256619,605.922841 510.819439,604.173021 511.945095,602.831543 C513.070752,601.490065 514.551857,600.806641 516.388455,600.78125 C518.115026,600.78125 519.48399,601.371576 520.495388,602.552246 C521.506787,603.732916 522.012478,605.309235 522.012478,607.28125 C522.012478,607.382813 522.010362,607.569009 522.006131,607.839844 C522.001899,608.110678 521.999783,608.305338 521.999783,608.423828 L512.440213,608.423828 C512.465603,610.006518 512.873965,611.240067 513.66531,612.124512 C514.456655,613.008956 515.520935,613.451172 516.858181,613.451172 C518.330845,613.451172 519.807718,613.061853 521.288845,612.283203 L521.618924,613.99707 C520.205505,614.860356 518.593216,615.291992 516.782009,615.291992 Z M528.42173,601.073242 L528.42173,615 L526.288918,615 L526.288918,601.073242 L528.42173,601.073242 Z M528.42173,596.007812 L528.42173,598.521484 L526.288918,598.521484 L526.288918,596.007812 L528.42173,596.007812 Z M538.779225,613.18457 C539.498629,613.18457 540.129157,613.057618 540.670826,612.803711 C541.212495,612.549803 541.635668,612.19857 541.940357,611.75 C542.245046,611.30143 542.471444,610.802086 542.619557,610.251953 C542.767669,609.70182 542.841725,609.100915 542.841725,608.449219 L542.841725,607.420898 C542.841725,606.743812 542.765553,606.119632 542.613209,605.54834 C542.460864,604.977048 542.226003,604.465009 541.908619,604.012207 C541.591235,603.559405 541.168062,603.206056 540.639088,602.952148 C540.110114,602.698241 539.494397,602.571289 538.79192,602.571289 C538.207933,602.571289 537.676851,602.681314 537.198658,602.901367 C536.720466,603.12142 536.326915,603.411294 536.017994,603.770996 C535.709073,604.130698 535.446706,604.54964 535.230885,605.027832 C535.015063,605.506025 534.860605,605.990557 534.767506,606.481445 C534.674406,606.972333 534.627857,607.467445 534.627857,607.966797 C534.627857,608.457685 534.678638,608.944334 534.780201,609.426758 C534.881764,609.909182 535.04257,610.378904 535.262623,610.835938 C535.482676,611.292971 535.749275,611.692869 536.062428,612.035645 C536.37558,612.37842 536.767015,612.655598 537.236744,612.867188 C537.706473,613.078777 538.220628,613.18457 538.779225,613.18457 Z M535.516529,621.373047 L535.3261,619.456055 L537.915943,619.456055 C538.635348,619.456055 539.261644,619.405274 539.79485,619.303711 C540.328055,619.202148 540.772387,619.034995 541.127857,618.802246 C541.483328,618.569498 541.771085,618.311362 541.991139,618.027832 C542.211192,617.744302 542.378345,617.376142 542.492603,616.92334 C542.606862,616.470538 542.683033,616.021975 542.721119,615.577637 C542.759205,615.133299 542.778248,614.589521 542.778248,613.946289 L542.778248,612.714844 C542.270433,613.442712 541.682223,614.003416 541.0136,614.396973 C540.344976,614.790529 539.494399,614.987305 538.461842,614.987305 C537.666265,614.987305 536.93206,614.849774 536.259205,614.574707 C535.58635,614.299641 535.019298,613.933596 534.558033,613.476562 C534.096768,613.019529 533.703217,612.490563 533.377369,611.889648 C533.051521,611.288734 532.814544,610.66667 532.666432,610.023438 C532.518319,609.380205 532.444264,608.732751 532.444264,608.081055 C532.444264,607.065425 532.5691,606.125981 532.818775,605.262695 C533.068451,604.39941 533.438727,603.629235 533.929615,602.952148 C534.420503,602.275062 535.065842,601.74398 535.86565,601.358887 C536.665459,600.973794 537.581628,600.78125 538.614185,600.78125 C539.528253,600.78125 540.325933,600.956867 541.007252,601.308105 C541.68857,601.659344 542.300055,602.19889 542.841725,602.926758 L542.841725,601.073242 L544.91106,601.073242 L544.91106,613.99707 C544.91106,614.589521 544.896249,615.107908 544.866627,615.552246 C544.837004,615.996584 544.765065,616.489581 544.650807,617.03125 C544.536548,617.572919 544.38209,618.03841 544.187428,618.427734 C543.992765,618.817059 543.719819,619.208494 543.36858,619.602051 C543.017341,619.995607 542.5984,620.312987 542.111744,620.554199 C541.625088,620.795411 541.022067,620.992187 540.302662,621.144531 C539.583257,621.296876 538.770766,621.373047 537.865162,621.373047 L535.516529,621.373047 Z M558.785156,615 L558.785156,606.583008 C558.785156,605.186516 558.562991,604.170902 558.118652,603.536133 C557.674314,602.901364 556.897792,602.583984 555.789062,602.583984 C554.722651,602.583984 553.823409,602.850583 553.091309,603.383789 C552.359209,603.916995 551.883139,604.606767 551.663086,605.453125 C551.586914,606.087894 551.548828,606.794592 551.548828,607.573242 L551.548828,615 L549.428711,615 L549.428711,595.665039 L551.548828,595.538086 L551.548828,601.200195 C551.548828,601.68262 551.531901,602.279293 551.498047,602.990234 C552.691412,601.517571 554.274079,600.78125 556.246094,600.78125 C559.352229,600.78125 560.905273,602.605125 560.905273,606.25293 L560.905273,615 L558.785156,615 Z M568.92683,615.253906 C567.55573,615.253906 566.582432,614.9196 566.006908,614.250977 C565.431385,613.582353 565.1267,612.503263 565.092846,611.013672 L565.092846,602.647461 L563.02351,602.647461 L563.112377,601.250977 L565.08015,601.073242 L565.803783,597.886719 L567.200268,597.835938 L567.200268,601.073242 L571.072338,601.073242 L571.072338,602.647461 L567.200268,602.647461 L567.200268,610.632812 C567.200268,611.69076 567.361073,612.435545 567.68269,612.867188 C568.004306,613.29883 568.55443,613.514648 569.33308,613.514648 C569.612378,613.514648 570.217516,613.446941 571.14851,613.311523 L571.237377,614.987305 C570.230211,615.16504 569.460036,615.253906 568.92683,615.253906 Z M579.792137,602.533203 C578.708798,602.533203 577.824367,602.916175 577.138817,603.682129 C576.453266,604.448083 576.051252,605.495436 575.932762,606.824219 L583.283348,606.824219 C583.283348,605.444655 582.972316,604.384607 582.350242,603.644043 C581.728169,602.903479 580.875476,602.533203 579.792137,602.533203 Z M580.211082,615.291992 C578.188286,615.291992 576.59504,614.648769 575.431297,613.362305 C574.267554,612.07584 573.685692,610.315441 573.685692,608.081055 C573.685692,605.922841 574.248511,604.173021 575.374168,602.831543 C576.499825,601.490065 577.98093,600.806641 579.817528,600.78125 C581.544099,600.78125 582.913063,601.371576 583.924461,602.552246 C584.935859,603.732916 585.441551,605.309235 585.441551,607.28125 C585.441551,607.382813 585.439435,607.569009 585.435203,607.839844 C585.430972,608.110678 585.428856,608.305338 585.428856,608.423828 L575.869285,608.423828 C575.894676,610.006518 576.303038,611.240067 577.094383,612.124512 C577.885728,613.008956 578.950008,613.451172 580.287254,613.451172 C581.759918,613.451172 583.236791,613.061853 584.717918,612.283203 L585.047996,613.99707 C583.634578,614.860356 582.022289,615.291992 580.211082,615.291992 Z M594.78342,613.463867 C596.179912,613.463867 597.218801,613.015304 597.900119,612.118164 C598.581438,611.221024 598.922092,609.93881 598.922092,608.271484 C598.922092,606.392569 598.594133,604.977056 597.938205,604.024902 C597.282278,603.072749 596.22223,602.59668 594.75803,602.59668 C594.106334,602.59668 593.530819,602.736327 593.031467,603.015625 C592.532116,603.294923 592.130101,603.684242 591.825412,604.183594 C591.520723,604.682945 591.290094,605.256344 591.133518,605.903809 C590.976942,606.551273 590.898655,607.260087 590.898655,608.030273 C590.898655,609.113612 591.031954,610.053056 591.298557,610.848633 C591.56516,611.64421 591.99468,612.278969 592.587131,612.75293 C593.179582,613.22689 593.911671,613.463867 594.78342,613.463867 Z M598.960178,612.981445 C598.503144,613.683923 597.893776,614.242511 597.132053,614.657227 C596.37033,615.071942 595.519753,615.279297 594.580295,615.279297 C592.743697,615.279297 591.30491,614.625495 590.263889,613.317871 C589.222868,612.010247 588.702366,610.230806 588.702366,607.979492 C588.702366,605.829742 589.231332,604.092617 590.28928,602.768066 C591.347228,601.443516 592.764857,600.78125 594.542209,600.78125 C595.46474,600.78125 596.33436,600.982257 597.151096,601.384277 C597.967832,601.786298 598.579317,602.325843 598.985569,603.00293 L598.947483,601.796875 L598.947483,595.665039 L601.042209,595.538086 L601.042209,615 L599.239475,615 L598.960178,612.981445 Z M517.883681,647.902344 C519.838768,648.867192 521.933474,649.349609 524.16786,649.349609 C526.918525,649.349609 528.293837,648.097018 528.293837,645.591797 C528.293837,644.779293 528.075903,644.121259 527.640028,643.617676 C527.204154,643.114093 526.410705,642.718426 525.259657,642.430664 L521.527235,641.491211 C518.675007,640.771806 517.248915,639.248384 517.248915,636.920898 C517.248915,635.135082 517.862516,633.808435 519.089735,632.940918 C520.316955,632.073401 522.013878,631.639648 524.180556,631.639648 C525.314676,631.639648 526.37684,631.762369 527.367079,632.007812 C528.357318,632.253256 529.186737,632.583331 529.85536,632.998047 L529.220595,634.788086 C528.653534,634.474933 527.902403,634.195639 526.967177,633.950195 C526.031951,633.704751 525.086159,633.582031 524.129774,633.582031 C521.065957,633.582031 519.534071,634.644195 519.534071,636.768555 C519.534071,637.487959 519.768932,638.06559 520.238661,638.501465 C520.70839,638.937339 521.412973,639.26953 522.352431,639.498047 L525.919813,640.361328 C527.443258,640.725262 528.59852,641.307125 529.385634,642.106934 C530.172747,642.906742 530.566298,644.042961 530.566298,645.515625 C530.566298,647.428395 529.980203,648.869299 528.807997,649.838379 C527.635791,650.807459 526.042545,651.291992 524.028212,651.291992 C522.521694,651.291992 521.182352,651.137534 520.010145,650.828613 C518.837939,650.519692 517.909075,650.153648 517.223524,649.730469 L517.883681,647.902344 Z M533.903284,646.353516 L533.903284,637.073242 L536.036097,637.073242 L536.036097,646.378906 C536.036097,646.988284 536.122847,647.504555 536.296351,647.927734 C536.469854,648.350914 536.719526,648.678873 537.045374,648.911621 C537.371222,649.14437 537.739382,649.311523 538.149866,649.413086 C538.56035,649.514649 539.032188,649.56543 539.565394,649.56543 C540.665659,649.56543 541.522584,649.324221 542.136194,648.841797 C542.749804,648.359373 543.056604,647.538417 543.056604,646.378906 L543.056604,637.073242 L545.189417,637.073242 L545.189417,646.353516 C545.189417,647.064457 545.087855,647.703448 544.884729,648.270508 C544.681603,648.837568 544.408657,649.309406 544.065882,649.686035 C543.723107,650.062665 543.310513,650.373697 542.828089,650.619141 C542.345665,650.864585 541.835741,651.042317 541.298304,651.152344 C540.760866,651.26237 540.183235,651.317383 539.565394,651.317383 C538.956015,651.317383 538.3805,651.26237 537.838831,651.152344 C537.297162,651.042317 536.783007,650.862469 536.296351,650.612793 C535.809694,650.363117 535.390753,650.049969 535.039515,649.67334 C534.688276,649.29671 534.411098,648.824873 534.207972,648.257812 C534.004846,647.690752 533.903284,647.055993 533.903284,646.353516 Z M566.998083,651 L566.998083,643.750977 C566.998083,643.07389 566.983272,642.506838 566.953649,642.049805 C566.924027,641.592771 566.856319,641.127281 566.750524,640.65332 C566.64473,640.17936 566.496619,639.804852 566.306189,639.529785 C566.115758,639.254719 565.851275,639.030437 565.512731,638.856934 C565.174188,638.68343 564.767942,638.59668 564.293981,638.59668 C563.362987,638.59668 562.569538,638.846352 561.91361,639.345703 C561.257683,639.845055 560.790077,640.547522 560.510778,641.453125 C560.434606,642.062503 560.396521,642.714189 560.396521,643.408203 L560.396521,651 L558.276403,651 L558.276403,643.522461 C558.276403,642.896156 558.255245,642.352379 558.212927,641.891113 C558.170609,641.429848 558.090206,640.981285 557.971716,640.54541 C557.853226,640.109536 557.694536,639.756186 557.495642,639.485352 C557.296747,639.214517 557.032264,638.998699 556.702185,638.837891 C556.372105,638.677083 555.978554,638.59668 555.521521,638.59668 C554.50589,638.59668 553.653197,638.854815 552.963415,639.371094 C552.273633,639.887372 551.810259,640.572912 551.573278,641.427734 C551.497106,642.07943 551.459021,642.786129 551.459021,643.547852 L551.459021,651 L549.338903,651 C549.321976,642.290972 549.313513,637.648766 549.313513,637.073242 L551.090856,637.073242 L551.357458,639.066406 C551.780637,638.423174 552.381543,637.881513 553.160192,637.441406 C553.938842,637.0013 554.823273,636.78125 555.813513,636.78125 C556.329791,636.78125 556.805861,636.834147 557.241735,636.939941 C557.67761,637.045736 558.041539,637.179036 558.333532,637.339844 C558.625526,637.500652 558.885777,637.693195 559.114294,637.91748 C559.342811,638.141765 559.520543,638.361815 559.647497,638.577637 C559.774451,638.793458 559.880244,639.019856 559.96488,639.256836 C560.98051,637.606437 562.533554,636.78125 564.62406,636.78125 C566.172895,636.78125 567.309115,637.223466 568.032751,638.10791 C568.756387,638.992355 569.1182,640.302075 569.1182,642.037109 L569.1182,651 L566.998083,651 Z" id="Weighted-Sum" fill="#FFFFFF"></path>
        <path d="M701.534794,607.205078 C699.748978,602.016901 698.762985,599.10124 698.576787,598.458008 L695.491826,607.205078 L701.534794,607.205078 Z M704.442021,615 L702.245732,609.045898 L694.755498,609.045898 L692.483037,615 L690.248662,615 L697.459599,596.185547 L699.706669,596.185547 L706.701787,615 L704.442021,615 Z M715.40889,615.291992 C713.360703,615.291992 711.758994,614.627611 710.603714,613.298828 C709.448435,611.970045 708.870804,610.230805 708.870804,608.081055 C708.879268,605.914377 709.469594,604.156094 710.6418,602.806152 C711.814007,601.456211 713.419948,600.78125 715.459671,600.78125 C716.179076,600.78125 716.875195,600.870116 717.54805,601.047852 C718.220905,601.225587 718.751987,601.458332 719.141312,601.746094 L718.557328,603.396484 C717.567088,602.863279 716.521851,602.59668 715.421586,602.59668 C714.075876,602.59668 713.011596,603.08756 712.228714,604.069336 C711.445833,605.051112 711.054398,606.39257 711.054398,608.09375 C711.054398,609.752612 711.441601,611.066564 712.216019,612.035645 C712.990437,613.004725 714.06318,613.489258 715.434281,613.489258 C716.526083,613.489258 717.64326,613.193037 718.785843,612.600586 L719.052445,614.289062 C718.129914,614.957686 716.915408,615.291992 715.40889,615.291992 Z M727.21365,615.253906 C725.84255,615.253906 724.869252,614.9196 724.293728,614.250977 C723.718205,613.582353 723.41352,612.503263 723.379666,611.013672 L723.379666,602.647461 L721.31033,602.647461 L721.399197,601.250977 L723.36697,601.073242 L724.090603,597.886719 L725.487088,597.835938 L725.487088,601.073242 L729.359158,601.073242 L729.359158,602.647461 L725.487088,602.647461 L725.487088,610.632812 C725.487088,611.69076 725.647893,612.435545 725.969509,612.867188 C726.291126,613.29883 726.84125,613.514648 727.6199,613.514648 C727.899198,613.514648 728.504336,613.446941 729.43533,613.311523 L729.524197,614.987305 C728.51703,615.16504 727.746856,615.253906 727.21365,615.253906 Z M735.247902,601.073242 L735.247902,615 L733.11509,615 L733.11509,601.073242 L735.247902,601.073242 Z M735.247902,596.007812 L735.247902,598.521484 L733.11509,598.521484 L733.11509,596.007812 L735.247902,596.007812 Z M743.764576,615 L738.369068,601.073242 L740.641529,601.073242 L743.713795,609.350586 L744.983326,612.879883 C745.271088,611.974279 745.66887,610.806322 746.176685,609.375977 C746.819918,607.573233 747.818606,604.805683 749.172779,601.073242 L751.432545,601.073242 L746.075123,615 L743.764576,615 Z M758.095703,613.578125 C759.10287,613.578125 759.989417,613.300947 760.755371,612.746582 C761.521325,612.192217 762.014322,611.445317 762.234375,610.505859 L762.234375,608.157227 C762.192057,608.157227 761.936038,608.178385 761.466309,608.220703 C760.99658,608.263021 760.689779,608.288411 760.545898,608.296875 C758.709301,608.457683 757.429203,608.758136 756.705566,609.198242 C755.98193,609.638349 755.620117,610.345047 755.620117,611.318359 C755.620117,612.063155 755.840167,612.625975 756.280273,613.006836 C756.72038,613.387697 757.325517,613.578125 758.095703,613.578125 Z M762.704102,615 C762.577148,614.458331 762.454428,613.874352 762.335938,613.248047 C761.565751,614.018233 760.842126,614.551431 760.165039,614.847656 C759.487952,615.143882 758.692387,615.291992 757.77832,615.291992 C756.474928,615.291992 755.427576,614.951338 754.63623,614.27002 C753.844885,613.588701 753.449219,612.609056 753.449219,611.331055 C753.449219,609.909173 753.988764,608.855472 755.067871,608.169922 C756.146978,607.484372 757.702138,607.056967 759.733398,606.887695 C760.012697,606.862305 760.433754,606.826335 760.996582,606.779785 C761.55941,606.733235 761.980467,606.697266 762.259766,606.671875 L762.259766,605.44043 C762.259766,604.458654 762.031252,603.730797 761.574219,603.256836 C761.117185,602.782875 760.397791,602.545898 759.416016,602.545898 C758.044915,602.545898 756.66114,602.884437 755.264648,603.561523 C755.222331,603.45996 755.112306,603.165855 754.93457,602.679199 C754.756835,602.192543 754.663737,601.940755 754.655273,601.923828 C755.273115,601.576821 756.00732,601.299643 756.85791,601.092285 C757.7085,600.884927 758.573889,600.78125 759.454102,600.78125 C761.189136,600.78125 762.439612,601.15999 763.205566,601.91748 C763.971521,602.674971 764.354492,603.963533 764.354492,605.783203 L764.354492,615 L762.704102,615 Z M773.417065,615.253906 C772.045964,615.253906 771.072666,614.9196 770.497143,614.250977 C769.921619,613.582353 769.616935,612.503263 769.58308,611.013672 L769.58308,602.647461 L767.513744,602.647461 L767.602611,601.250977 L769.570385,601.073242 L770.294018,597.886719 L771.690502,597.835938 L771.690502,601.073242 L775.562572,601.073242 L775.562572,602.647461 L771.690502,602.647461 L771.690502,610.632812 C771.690502,611.69076 771.851308,612.435545 772.172924,612.867188 C772.49454,613.29883 773.044665,613.514648 773.823315,613.514648 C774.102613,613.514648 774.70775,613.446941 775.638744,613.311523 L775.727611,614.987305 C774.720445,615.16504 773.95027,615.253906 773.417065,615.253906 Z M781.451317,601.073242 L781.451317,615 L779.318504,615 L779.318504,601.073242 L781.451317,601.073242 Z M781.451317,596.007812 L781.451317,598.521484 L779.318504,598.521484 L779.318504,596.007812 L781.451317,596.007812 Z M787.949436,608.068359 C787.949436,609.718758 788.31548,611.041173 789.04758,612.035645 C789.77968,613.030116 790.848192,613.527344 792.253147,613.527344 C793.641175,613.527344 794.688527,613.032232 795.395237,612.041992 C796.101946,611.051753 796.455295,609.718758 796.455295,608.042969 C796.455295,606.341788 796.106178,605.002446 795.407932,604.024902 C794.709686,603.047358 793.645407,602.558594 792.215061,602.558594 C790.827033,602.558594 789.769101,603.057938 789.041233,604.056641 C788.313364,605.055344 787.949436,606.39257 787.949436,608.068359 Z M798.651584,608.030273 C798.651584,610.188487 798.076069,611.938307 796.925022,613.279785 C795.773974,614.621263 794.182844,615.291992 792.151584,615.291992 C790.196496,615.291992 788.641336,614.614916 787.486057,613.260742 C786.330778,611.906569 785.753147,610.167328 785.753147,608.042969 C785.753147,605.876291 786.332894,604.124356 787.492405,602.787109 C788.651916,601.449863 790.243046,600.78125 792.265842,600.78125 C794.254784,600.78125 795.816292,601.451979 796.950412,602.793457 C798.084533,604.134935 798.651584,605.880523 798.651584,608.030273 Z M802.610641,615 L802.610641,601.073242 L804.387985,601.073242 L804.654586,603.066406 C805.204719,602.380856 805.892375,601.828615 806.717575,601.409668 C807.542774,600.990721 808.433553,600.78125 809.389938,600.78125 C810.998019,600.78125 812.187135,601.231929 812.957321,602.133301 C813.727507,603.034672 814.112594,604.420564 814.112594,606.291016 L814.112594,615 L811.992477,615 C811.992477,609.414035 811.988245,606.422203 811.979782,606.024414 C811.945927,604.839512 811.706835,603.972008 811.262496,603.421875 C810.818158,602.871742 810.07549,602.59668 809.034469,602.59668 C807.942667,602.59668 807.032845,602.859047 806.304977,603.383789 C805.577109,603.908531 805.103155,604.58984 804.883102,605.427734 C804.798466,605.994795 804.756149,606.646481 804.756149,607.382812 L804.756149,615 L802.610641,615 Z M703.913285,651 L701.716996,651 L701.716996,632.223633 L712.139847,632.223633 L712.05098,634.166016 L703.913285,634.166016 L703.913285,640.754883 L711.670121,640.754883 L711.670121,642.621094 L703.913285,642.621094 L703.913285,651 Z M715.019802,646.353516 L715.019802,637.073242 L717.152615,637.073242 L717.152615,646.378906 C717.152615,646.988284 717.239365,647.504555 717.412869,647.927734 C717.586372,648.350914 717.836044,648.678873 718.161892,648.911621 C718.48774,649.14437 718.855901,649.311523 719.266384,649.413086 C719.676868,649.514649 720.148706,649.56543 720.681912,649.56543 C721.782178,649.56543 722.639103,649.324221 723.252713,648.841797 C723.866322,648.359373 724.173123,647.538417 724.173123,646.378906 L724.173123,637.073242 L726.305935,637.073242 L726.305935,646.353516 C726.305935,647.064457 726.204374,647.703448 726.001248,648.270508 C725.798122,648.837568 725.525175,649.309406 725.1824,649.686035 C724.839625,650.062665 724.427031,650.373697 723.944607,650.619141 C723.462183,650.864585 722.95226,651.042317 722.414822,651.152344 C721.877384,651.26237 721.299753,651.317383 720.681912,651.317383 C720.072534,651.317383 719.497019,651.26237 718.955349,651.152344 C718.41368,651.042317 717.899525,650.862469 717.412869,650.612793 C716.926213,650.363117 716.507272,650.049969 716.156033,649.67334 C715.804794,649.29671 715.527616,648.824873 715.32449,648.257812 C715.121364,647.690752 715.019802,647.055993 715.019802,646.353516 Z M730.430031,651 L730.430031,637.073242 L732.207375,637.073242 L732.473976,639.066406 C733.024109,638.380856 733.711765,637.828615 734.536965,637.409668 C735.362164,636.990721 736.252943,636.78125 737.209328,636.78125 C738.817409,636.78125 740.006525,637.231929 740.776711,638.133301 C741.546897,639.034672 741.931984,640.420564 741.931984,642.291016 L741.931984,651 L739.811867,651 C739.811867,645.414035 739.807635,642.422203 739.799172,642.024414 C739.765317,640.839512 739.526225,639.972008 739.081887,639.421875 C738.637548,638.871742 737.89488,638.59668 736.853859,638.59668 C735.762057,638.59668 734.852235,638.859047 734.124367,639.383789 C733.396499,639.908531 732.922545,640.58984 732.702492,641.427734 C732.617856,641.994795 732.575539,642.646481 732.575539,643.382812 L732.575539,651 L730.430031,651 Z M752.314869,651.291992 C750.266682,651.291992 748.664972,650.627611 747.509693,649.298828 C746.354414,647.970045 745.776783,646.230805 745.776783,644.081055 C745.785247,641.914377 746.375573,640.156094 747.547779,638.806152 C748.719986,637.456211 750.325927,636.78125 752.36565,636.78125 C753.085055,636.78125 753.781174,636.870116 754.454029,637.047852 C755.126884,637.225587 755.657966,637.458332 756.047291,637.746094 L755.463307,639.396484 C754.473067,638.863279 753.42783,638.59668 752.327564,638.59668 C750.981855,638.59668 749.917575,639.08756 749.134693,640.069336 C748.351812,641.051112 747.960377,642.39257 747.960377,644.09375 C747.960377,645.752612 748.34758,647.066564 749.121998,648.035645 C749.896416,649.004725 750.969159,649.489258 752.34026,649.489258 C753.432062,649.489258 754.549238,649.193037 755.691822,648.600586 L755.958424,650.289062 C755.035893,650.957686 753.821387,651.291992 752.314869,651.291992 Z M764.119629,651.253906 C762.748528,651.253906 761.775231,650.9196 761.199707,650.250977 C760.624183,649.582353 760.319499,648.503263 760.285645,647.013672 L760.285645,638.647461 L758.216309,638.647461 L758.305176,637.250977 L760.272949,637.073242 L760.996582,633.886719 L762.393066,633.835938 L762.393066,637.073242 L766.265137,637.073242 L766.265137,638.647461 L762.393066,638.647461 L762.393066,646.632812 C762.393066,647.69076 762.553872,648.435545 762.875488,648.867188 C763.197104,649.29883 763.747229,649.514648 764.525879,649.514648 C764.805177,649.514648 765.410314,649.446941 766.341309,649.311523 L766.430176,650.987305 C765.423009,651.16504 764.652835,651.253906 764.119629,651.253906 Z M772.153881,637.073242 L772.153881,651 L770.021068,651 L770.021068,637.073242 L772.153881,637.073242 Z M772.153881,632.007812 L772.153881,634.521484 L770.021068,634.521484 L770.021068,632.007812 L772.153881,632.007812 Z M778.652,644.068359 C778.652,645.718758 779.018045,647.041173 779.750145,648.035645 C780.482245,649.030116 781.550756,649.527344 782.955711,649.527344 C784.343739,649.527344 785.391092,649.032232 786.097801,648.041992 C786.80451,647.051753 787.15786,645.718758 787.15786,644.042969 C787.15786,642.341788 786.808742,641.002446 786.110496,640.024902 C785.412251,639.047358 784.347971,638.558594 782.917625,638.558594 C781.529597,638.558594 780.471665,639.057938 779.743797,640.056641 C779.015929,641.055344 778.652,642.39257 778.652,644.068359 Z M789.354149,644.030273 C789.354149,646.188487 788.778634,647.938307 787.627586,649.279785 C786.476539,650.621263 784.885409,651.291992 782.854149,651.291992 C780.899061,651.291992 779.3439,650.614916 778.188621,649.260742 C777.033342,647.906569 776.455711,646.167328 776.455711,644.042969 C776.455711,641.876291 777.035458,640.124356 778.194969,638.787109 C779.35448,637.449863 780.94561,636.78125 782.968406,636.78125 C784.957349,636.78125 786.518856,637.451979 787.652977,638.793457 C788.787097,640.134935 789.354149,641.880523 789.354149,644.030273 Z M793.313205,651 L793.313205,637.073242 L795.090549,637.073242 L795.357151,639.066406 C795.907284,638.380856 796.59494,637.828615 797.420139,637.409668 C798.245338,636.990721 799.136117,636.78125 800.092502,636.78125 C801.700583,636.78125 802.889699,637.231929 803.659885,638.133301 C804.430071,639.034672 804.815158,640.420564 804.815158,642.291016 L804.815158,651 L802.695041,651 C802.695041,645.414035 802.69081,642.422203 802.682346,642.024414 C802.648492,640.839512 802.409399,639.972008 801.965061,639.421875 C801.520723,638.871742 800.778054,638.59668 799.737033,638.59668 C798.645231,638.59668 797.73541,638.859047 797.007541,639.383789 C796.279673,639.908531 795.805719,640.58984 795.585666,641.427734 C795.50103,641.994795 795.458713,642.646481 795.458713,643.382812 L795.458713,651 L793.313205,651 Z" id="Activation-Function" fill="#FFFFFF"></path>
        <path d="M257.508301,548.370117 C257.508301,547.969725 257.620604,547.549807 257.845215,547.110352 C257.981934,546.86621 258.240721,546.744141 258.621582,546.744141 L259.310059,546.744141 C259.710451,546.744141 260.025389,546.739258 260.254883,546.729492 C260.484376,546.719727 260.674804,546.680664 260.826172,546.612305 C260.97754,546.543945 261.072754,546.5 261.111816,546.480469 C261.150879,546.460937 261.243652,546.382813 261.390137,546.246094 L269.812988,538.086914 L265.491699,530.425781 L263.719238,530.425781 C263.025875,530.425781 262.679199,530.21094 262.679199,529.78125 C262.679199,529.71289 262.728027,529.458987 262.825684,529.019531 C262.903809,528.63867 263.028319,528.399415 263.199219,528.301758 C263.370118,528.204101 263.685056,528.155273 264.144043,528.155273 C264.222168,528.155273 264.375975,528.160156 264.605469,528.169922 C264.834962,528.179688 265.032714,528.18457 265.19873,528.18457 L269.270996,528.18457 C269.808108,528.18457 270.081543,528.384764 270.091309,528.785156 C270.091309,528.960938 270.047364,529.22949 269.959473,529.59082 C269.900879,529.854494 269.817872,530.049804 269.710449,530.176758 C269.603027,530.303712 269.50293,530.376953 269.410156,530.396484 C269.317382,530.416016 269.163575,530.425781 268.94873,530.425781 L272.039551,535.889648 L277.679199,530.425781 C277.220213,530.40625 276.990723,530.196291 276.990723,529.795898 C276.990723,529.67871 277.029785,529.439455 277.10791,529.078125 C277.205567,528.716795 277.315429,528.47754 277.4375,528.360352 C277.559571,528.243163 277.786619,528.18457 278.118652,528.18457 L283.406738,528.18457 C283.963382,528.18457 284.241699,528.394529 284.241699,528.814453 C284.241699,529.234377 284.144044,529.644529 283.94873,530.044922 C283.831542,530.298829 283.572756,530.425781 283.172363,530.425781 L282.894043,530.425781 C281.937007,530.425781 281.343751,530.445312 281.114258,530.484375 C280.884764,530.523438 280.64795,530.655272 280.403809,530.879883 L273.16748,537.896484 L278.177246,546.744141 L279.949707,546.744141 C280.652836,546.744141 281.004395,546.954099 281.004395,547.374023 C281.004395,547.452149 280.955567,547.715818 280.85791,548.165039 C280.799316,548.38965 280.743164,548.545898 280.689453,548.633789 C280.635742,548.72168 280.550294,548.804687 280.433105,548.882812 C280.315917,548.960938 280.135255,549 279.891113,549 L274.397949,549 C273.860837,549 273.592285,548.790041 273.592285,548.370117 C273.592285,548.213866 273.631347,547.95508 273.709473,547.59375 C273.807129,547.212889 273.926757,546.976075 274.068359,546.883301 C274.209962,546.790527 274.432127,546.744141 274.734863,546.744141 L270.955566,540.064453 L264.085449,546.744141 C264.544436,546.763672 264.773926,546.973631 264.773926,547.374023 C264.773926,547.530274 264.734864,547.774412 264.656738,548.106445 C264.578613,548.487307 264.473633,548.731445 264.341797,548.838867 C264.20996,548.94629 263.973146,549 263.631348,549 L258.35791,549 C257.791501,549 257.508301,548.790041 257.508301,548.370117 Z" id="X-Copy-2" fill="#37C3BE"></path>
        <path d="M285.283203,263.516602 C285.340495,262.900713 285.487304,262.535482 285.723633,262.420898 C285.809571,262.377929 285.942056,262.352865 286.121094,262.345703 L288.720703,262.345703 L291.223633,252.269531 C290.185216,252.914066 289.239913,253.239909 288.387695,253.24707 C288.022459,253.24707 287.839844,253.100262 287.839844,252.806641 C287.839844,252.677734 287.882812,252.462892 287.96875,252.162109 C288.040365,251.897134 288.124511,251.736003 288.221191,251.678711 C288.317872,251.621419 288.527342,251.578451 288.849609,251.549805 C289.171877,251.521159 289.494139,251.445964 289.816406,251.324219 C290.962245,250.901691 291.989904,250.096035 292.899414,248.907227 C293.092774,248.670897 293.289713,248.552734 293.490234,248.552734 C293.812502,248.552734 293.973633,248.692381 293.973633,248.97168 C293.973633,249.086264 293.966471,249.16862 293.952148,249.21875 L290.987305,261.035156 C290.958659,261.178386 290.906739,261.396808 290.831543,261.69043 C290.756347,261.984051 290.704427,262.202473 290.675781,262.345703 L293.02832,262.345703 C293.465171,262.345703 293.683594,262.499673 293.683594,262.807617 C293.683594,263.101238 293.604818,263.409178 293.447266,263.731445 C293.347005,263.910483 293.157228,264 292.87793,264 L286.035156,264 C285.533852,264 285.283203,263.838869 285.283203,263.516602 Z" id="1" fill="#37C3BE"></path>
        <path d="M283.897461,411.957031 C283.897461,411.792317 283.978027,411.509442 284.13916,411.108398 C284.300294,410.707355 284.541991,410.227542 284.864258,409.668945 C285.186525,409.110349 285.662757,408.523115 286.292969,407.907227 C286.92318,407.291338 287.628577,406.764976 288.40918,406.328125 C288.74577,406.134765 289.266761,405.880535 289.972168,405.56543 C290.677575,405.250324 291.250486,404.97103 291.690918,404.727539 C292.13135,404.484048 292.59684,404.168947 293.087402,403.782227 C293.577965,403.395506 293.946776,402.926435 294.193848,402.375 C294.440919,401.823565 294.564453,401.196944 294.564453,400.495117 C294.564453,399.628576 294.304853,399.019859 293.785645,398.668945 C293.266436,398.318032 292.634444,398.142578 291.889648,398.142578 C290.686517,398.142578 289.662439,398.600907 288.817383,399.517578 C287.972327,400.434249 287.549805,401.207679 287.549805,401.837891 C287.549805,402.102866 287.675129,402.235352 287.925781,402.235352 C288.291017,402.235352 288.6652,402.007978 289.04834,401.553223 C289.43148,401.098468 289.623047,400.688478 289.623047,400.323242 C289.623047,400.194335 289.578288,400.054688 289.48877,399.904297 C289.399251,399.753905 289.354492,399.650065 289.354492,399.592773 C289.354492,399.463867 289.529946,399.259767 289.880859,398.980469 C290.231773,398.70117 290.468098,398.561523 290.589844,398.561523 C290.733074,398.561523 290.892414,398.719074 291.067871,399.03418 C291.243328,399.349285 291.331055,399.68229 291.331055,400.033203 C291.331055,400.813806 290.953292,401.653479 290.197754,402.552246 C289.442216,403.451014 288.566737,403.900391 287.571289,403.900391 C287.041338,403.900391 286.600913,403.732098 286.25,403.395508 C285.899087,403.058918 285.723633,402.625654 285.723633,402.095703 C285.723633,401.623045 285.877603,401.073408 286.185547,400.446777 C286.493491,399.820147 286.916013,399.206058 287.453125,398.604492 C287.990237,398.002927 288.67594,397.496259 289.510254,397.084473 C290.344568,396.672687 291.223628,396.466797 292.147461,396.466797 C292.663089,396.466797 293.159015,396.529459 293.635254,396.654785 C294.111493,396.780111 294.580564,396.98242 295.04248,397.261719 C295.504397,397.541017 295.878579,397.954587 296.165039,398.502441 C296.451499,399.050296 296.594727,399.700192 296.594727,400.452148 C296.594727,401.211267 296.45866,401.914873 296.186523,402.562988 C295.914387,403.211104 295.579592,403.746417 295.182129,404.168945 C294.784666,404.591473 294.297692,404.997882 293.721191,405.388184 C293.144691,405.778485 292.612958,406.086425 292.125977,406.312012 C291.638995,406.537599 291.100101,406.790038 290.509277,407.069336 C289.918454,407.348634 289.4834,407.570637 289.204102,407.735352 C288.559567,408.114911 287.9043,408.634111 287.238281,409.292969 C287.811201,409.335938 288.618647,409.507811 289.660645,409.808594 C290.702642,410.109377 291.510088,410.259766 292.083008,410.259766 C292.612958,410.259766 293.116046,410.07715 293.592285,409.711914 C294.068525,409.346678 294.417642,408.856123 294.639648,408.240234 C294.711263,408.046874 294.779297,407.928711 294.84375,407.885742 C294.908203,407.842773 295.037108,407.821289 295.230469,407.821289 L295.799805,407.821289 C296.222333,407.821289 296.433594,407.917968 296.433594,408.111328 C296.433594,408.333334 296.324383,408.659178 296.105957,409.088867 C295.887531,409.518557 295.595705,409.975095 295.230469,410.458496 C294.865233,410.941897 294.367516,411.360838 293.737305,411.715332 C293.107093,412.069826 292.444665,412.24707 291.75,412.24707 C291.119789,412.24707 290.213873,412.026858 289.032227,411.586426 C287.85058,411.145994 287.084312,410.925781 286.733398,410.925781 C286.604492,410.925781 286.504232,410.932943 286.432617,410.947266 C286.196288,411.004558 285.990398,411.215818 285.814941,411.581055 C285.639485,411.946291 285.544596,412.136068 285.530273,412.150391 C285.444336,412.207683 285.297527,412.239909 285.089844,412.24707 L284.466797,412.24707 C284.087238,412.24707 283.897461,412.150392 283.897461,411.957031 Z" id="2" fill="#37C3BE"></path>
        <path d="M282.817871,553.006836 C282.817871,552.906575 282.880533,552.682782 283.005859,552.335449 C283.131186,551.988117 283.30843,551.59424 283.537598,551.153809 C283.766765,550.713377 284.096189,550.324871 284.525879,549.988281 C284.955569,549.651691 285.435381,549.483398 285.965332,549.483398 C286.509606,549.483398 287.019854,549.630207 287.496094,549.923828 C287.972333,550.217449 288.278482,550.679359 288.414551,551.30957 C289.56039,550.092116 290.849439,549.483398 292.281738,549.483398 C293.133956,549.483398 293.850095,549.674966 294.430176,550.058105 C295.010257,550.441245 295.300293,551.087561 295.300293,551.99707 C295.300293,552.791996 295.02816,553.943189 294.483887,555.450684 C293.939613,556.958178 293.66748,557.762044 293.66748,557.862305 C293.66748,558.041342 293.722981,558.18636 293.833984,558.297363 C293.944988,558.408366 294.086425,558.463867 294.258301,558.463867 C294.580568,558.463867 294.895669,558.297365 295.203613,557.964355 C295.511558,557.631346 295.755045,557.203453 295.934082,556.680664 C295.991374,556.487304 296.064778,556.372722 296.154297,556.336914 C296.243816,556.301107 296.456867,556.283203 296.793457,556.283203 L297.072754,556.283203 C297.495282,556.283203 297.710124,556.387043 297.717285,556.594727 C297.717285,556.773764 297.633139,557.045897 297.464844,557.411133 C297.296549,557.776369 297.062013,558.163084 296.76123,558.571289 C296.460448,558.979494 296.055829,559.337564 295.547363,559.645508 C295.038897,559.953452 294.501793,560.107422 293.936035,560.107422 C293.305824,560.107422 292.774091,559.928387 292.34082,559.570312 C291.90755,559.212238 291.690918,558.739586 291.690918,558.152344 C291.690918,557.887368 291.968422,556.999357 292.523438,555.488281 C293.078453,553.977206 293.355957,552.935224 293.355957,552.362305 C293.355957,551.560217 292.894048,551.15918 291.970215,551.15918 L291.94873,551.15918 C291.189612,551.15918 290.498538,551.411619 289.875488,551.916504 C289.252438,552.421389 288.752932,553.065914 288.376953,553.850098 C288.000975,554.634281 287.693035,555.396969 287.453125,556.138184 C287.213215,556.879398 287.012696,557.586585 286.851562,558.259766 C286.690429,558.932946 286.584798,559.323242 286.534668,559.430664 C286.326985,559.881838 285.983238,560.107422 285.503418,560.107422 C285.281412,560.107422 285.093425,560.037598 284.939453,559.897949 C284.785481,559.7583 284.708496,559.581056 284.708496,559.366211 C284.708496,559.201497 284.733561,559.047527 284.783691,558.904297 L286.405762,552.362305 C286.448731,552.19759 286.470215,552.050782 286.470215,551.921875 C286.470215,551.685546 286.389649,551.49935 286.228516,551.363281 C286.067382,551.227213 285.893718,551.15918 285.70752,551.15918 C285.442544,551.15918 285.233074,551.31315 285.079102,551.621094 C284.925129,551.929038 284.799805,552.262042 284.703125,552.620117 C284.606445,552.978192 284.522299,553.185872 284.450684,553.243164 C284.393392,553.286133 284.253745,553.307617 284.031738,553.307617 L283.344238,553.307617 C282.993325,553.307617 282.817871,553.207358 282.817871,553.006836 Z" id="n" fill="#37C3BE"></path>
        <circle id="Oval-2" fill="#37C3BE" fill-rule="nonzero" cx="275" cy="455" r="3"></circle>
        <circle id="Oval-2" fill="#37C3BE" fill-rule="nonzero" cx="275" cy="469" r="3"></circle>
        <circle id="Oval-2" fill="#37C3BE" fill-rule="nonzero" cx="275" cy="484" r="3"></circle>
        <path d="M334,396.25 L431.5,396.25" id="Line-2" stroke="#37C3BE" stroke-width="2" stroke-linecap="square" fill-rule="nonzero"></path>
        <path d="M334,276 L431.5,396.195312" id="Line-2" stroke="#37C3BE" stroke-width="2" stroke-linecap="square" fill-rule="nonzero"></path>
        <path d="M334,397 L431.5,517.195312" id="Line-2" stroke="#37C3BE" stroke-width="2" stroke-linecap="square" fill-rule="nonzero" transform="translate(382.750000, 457.097656) scale(1, -1) translate(-382.750000, -457.097656) "></path>
        <path id="Line-2-Copy-3" d="M963.5,395.208333 L949.5,388.208333 L949.5,402.208333 L963.5,395.208333 Z M866,396.208333 L950.5,396.208333 L951.5,396.208333 L951.5,394.208333 L950.5,394.208333 L866,394.208333 L865,394.208333 L865,396.208333 L866,396.208333 Z" fill="#37C3BE" fill-rule="nonzero"></path>
        <path d="M544,480 L544,577.5" id="Line-2-Copy" stroke="#FFFFFF" stroke-width="2" stroke-linecap="square" fill-rule="nonzero"></path>
        <path d="M753,480 L753,577.5" id="Line-2-Copy-2" stroke="#FFFFFF" stroke-width="2" stroke-linecap="square" fill-rule="nonzero"></path>
        <path d="M683.433594,428.390625 C683.433594,427.01041 683.902339,425.838546 684.839844,424.875 C685.777348,423.911454 686.91015,423.429688 688.238281,423.429688 C689.253911,423.429688 690.041664,423.709633 690.601562,424.269531 C691.161461,424.82943 691.441406,425.591141 691.441406,426.554688 C691.441406,427.153649 691.389323,427.609373 691.285156,427.921875 C691.441407,427.921875 691.662759,427.934896 691.949219,427.960938 C692.235679,427.986979 692.45703,428 692.613281,428 L692.808594,428 C693.824224,428 694.651038,427.602869 695.289062,426.808594 C695.927087,426.014319 696.591142,424.334648 697.28125,421.769531 C697.971358,419.204414 698.687496,415.936218 699.429688,411.964844 C700.171879,407.99347 701.180983,402.401078 702.457031,395.1875 C702.717449,393.755201 702.91276,392.661462 703.042969,391.90625 L703.980469,386.242188 L696.792969,386.242188 C695.308586,386.242188 694.566406,385.682297 694.566406,384.5625 C694.566406,384.093748 694.670572,383.533857 694.878906,382.882812 C695.035157,382.179684 695.165364,381.697918 695.269531,381.4375 C695.373698,381.177082 695.614581,380.910158 695.992188,380.636719 C696.369794,380.36328 696.871091,380.226562 697.496094,380.226562 L705.113281,380.226562 L705.113281,380.148438 C705.972661,374.497368 706.838537,370.662771 707.710938,368.644531 C708.583338,366.626292 709.93098,365.031256 711.753906,363.859375 C713.733083,362.635411 715.738271,362.010417 717.769531,361.984375 C719.149746,361.984375 720.464838,362.134113 721.714844,362.433594 C722.96485,362.733074 724.136713,363.325516 725.230469,364.210938 C726.324224,365.096359 726.871094,366.22916 726.871094,367.609375 C726.871094,368.885423 726.42839,370.031245 725.542969,371.046875 C724.657548,372.062505 723.524746,372.570312 722.144531,372.570312 C720.009104,372.570312 718.941406,371.528656 718.941406,369.445312 C718.941406,369.184895 718.993489,368.72917 719.097656,368.078125 L714.722656,368 C713.811193,370.291678 712.925786,374.367158 712.066406,380.226562 L720.855469,380.226562 C722.287768,380.226562 723.016927,380.786453 723.042969,381.90625 C722.886718,384.197928 722.352869,385.565102 721.441406,386.007812 C721.180988,386.164063 720.699222,386.242188 719.996094,386.242188 L710.933594,386.242188 C708.329414,401.867266 706.441412,412.244766 705.269531,417.375 C704.748695,419.614595 704.312502,421.359369 703.960938,422.609375 C703.609373,423.859381 702.847662,425.467438 701.675781,427.433594 C700.5039,429.399749 699.084644,431.007806 697.417969,432.257812 C695.777336,433.429693 694.071623,434.015625 692.300781,434.015625 L692.144531,434.015625 C689.95702,434.015625 687.958342,433.5599 686.148438,432.648438 C684.338533,431.736975 683.433594,430.317718 683.433594,428.390625 Z M721.394531,412.492188 C721.394531,408.169249 721.941401,403.644555 723.035156,398.917969 C724.128912,394.191383 725.76952,389.419295 727.957031,384.601562 C730.144542,379.78383 733.087221,375.102887 736.785156,370.558594 C740.483091,366.0143 744.701799,362.179703 749.441406,359.054688 C750.50912,358.351559 751.446611,358 752.253906,358 L754.324219,358 C755.600267,358 756.251302,358.299476 756.277344,358.898438 C756.277344,359.210939 755.821619,359.705726 754.910156,360.382812 C746.42053,366.2943 739.832055,374.230419 735.144531,384.191406 C730.457008,394.152394 728.113281,403.794224 728.113281,413.117188 C728.113281,417.127624 728.549475,420.740869 729.421875,423.957031 C730.294275,427.173193 731.277338,429.555982 732.371094,431.105469 C733.464849,432.654956 734.454423,433.976557 735.339844,435.070312 C736.225265,436.164068 736.667969,436.841145 736.667969,437.101562 C736.667969,437.700524 736.186203,438 735.222656,438 L732.722656,438 C731.75911,438 730.860681,437.544275 730.027344,436.632812 C724.272107,430.617157 721.394531,422.570363 721.394531,412.492188 Z M747.792969,392.648438 C747.792969,390.565094 749.394515,387.89585 752.597656,384.640625 C755.800797,381.3854 759.693988,379.757812 764.277344,379.757812 C768.105488,379.757812 771.10025,380.903634 773.261719,383.195312 C776.46486,380.903634 779.498684,379.757812 782.363281,379.757812 C785.019545,379.757812 787.187492,380.558586 788.867188,382.160156 C790.546883,383.761727 791.386719,385.838529 791.386719,388.390625 C791.386719,390.578136 790.872401,392.179682 789.84375,393.195312 C788.815099,394.210943 787.675787,394.71875 786.425781,394.71875 C785.462235,394.71875 784.694013,394.438805 784.121094,393.878906 C783.548174,393.319008 783.261719,392.583338 783.261719,391.671875 C783.261719,390.447911 783.730464,389.302089 784.667969,388.234375 C783.96484,386.645825 782.84506,385.851562 781.308594,385.851562 C779.016916,385.851562 777.311204,386.776032 776.191406,388.625 C775.826821,389.223961 774.921882,392.453096 773.476562,398.3125 C772.031243,404.171904 771.308594,407.531246 771.308594,408.390625 C771.308594,411.046888 772.988264,412.388021 776.347656,412.414062 C778.378916,412.414062 780.169263,411.795579 781.71875,410.558594 C783.268237,409.321608 784.394528,407.934904 785.097656,406.398438 C785.514325,405.434891 785.826822,404.875001 786.035156,404.71875 C786.243491,404.562499 786.907546,404.484375 788.027344,404.484375 L789.824219,404.484375 C791.204434,404.484375 791.894531,404.861975 791.894531,405.617188 C791.894531,407.700531 790.279964,410.363265 787.050781,413.605469 C783.821598,416.847672 779.941429,418.46875 775.410156,418.46875 C771.582012,418.46875 768.58725,417.322928 766.425781,415.03125 L766.347656,415.03125 C763.587226,417.322928 760.579443,418.46875 757.324219,418.46875 C754.772123,418.46875 752.630217,417.654956 750.898438,416.027344 C749.166658,414.399731 748.300781,412.309909 748.300781,409.757812 C748.300781,407.570302 748.802078,405.981776 749.804688,404.992188 C750.807297,404.002599 751.959629,403.507812 753.261719,403.507812 C754.225265,403.507812 755.013018,403.787758 755.625,404.347656 C756.236982,404.907555 756.542969,405.643225 756.542969,406.554688 C756.542969,407.674485 756.035161,408.820307 755.019531,409.992188 C755.618493,411.580737 756.738273,412.388021 758.378906,412.414062 C759.342453,412.414062 760.299474,412.160159 761.25,411.652344 C762.200526,411.144529 762.923175,410.486983 763.417969,409.679688 C763.73047,409.158852 764.042967,408.299485 764.355469,407.101562 C767.011732,396.528593 768.352864,390.773442 768.378906,389.835938 C768.378906,387.179674 766.699236,385.851562 763.339844,385.851562 C761.464834,385.851562 759.726571,386.424473 758.125,387.570312 C756.523429,388.716152 755.345056,390.109367 754.589844,391.75 C754.173175,392.713546 753.88672,393.273437 753.730469,393.429688 C753.574218,393.585938 753.066411,393.664062 752.207031,393.664062 L749.628906,393.664062 C748.404942,393.690104 747.792969,393.351566 747.792969,392.648438 Z M784.074219,437.101562 C784.074219,436.997395 784.10026,436.89323 784.152344,436.789062 C784.204427,436.684895 784.282552,436.567709 784.386719,436.4375 C784.490886,436.307291 784.595052,436.216146 784.699219,436.164062 C784.803386,436.111979 784.933593,436.020834 785.089844,435.890625 C785.246095,435.760416 785.389322,435.669271 785.519531,435.617188 C791.378936,431.502584 796.398417,426.25524 800.578125,419.875 C804.757833,413.49476 807.759105,407.186229 809.582031,400.949219 C811.404957,394.712208 812.316406,388.716175 812.316406,382.960938 C812.316406,378.950501 811.860682,375.337256 810.949219,372.121094 C810.037756,368.904932 809.048182,366.522143 807.980469,364.972656 C806.912755,363.423169 805.923182,362.088547 805.011719,360.96875 C804.100256,359.848953 803.644531,359.158855 803.644531,358.898438 C803.644531,358.299476 804.126297,358 805.089844,358 L807.746094,358 C808.162762,358 808.520832,358.052083 808.820312,358.15625 C809.119793,358.260417 809.562497,358.592445 810.148438,359.152344 C810.734378,359.712242 811.483068,360.552078 812.394531,361.671875 C816.821637,367.427112 819.035156,374.731727 819.035156,383.585938 C819.035156,387.648458 818.527349,391.932269 817.511719,396.4375 C816.496089,400.942731 814.985687,405.545549 812.980469,410.246094 C810.97525,414.946638 808.240903,419.536436 804.777344,424.015625 C801.313785,428.494814 797.368512,432.361963 792.941406,435.617188 C792.733072,435.773438 792.427085,435.99479 792.023438,436.28125 C791.61979,436.56771 791.365886,436.75 791.261719,436.828125 C791.157552,436.90625 790.955731,437.042968 790.65625,437.238281 C790.356769,437.433595 790.167969,437.557291 790.089844,437.609375 C790.011718,437.661459 789.868491,437.739583 789.660156,437.84375 C789.451822,437.947917 789.269532,438 789.113281,438 C788.95703,438 788.781251,438.013021 788.585938,438.039062 C788.390624,438.065104 788.162762,438.078125 787.902344,438.078125 C787.798177,438.078125 787.628907,438.065104 787.394531,438.039062 C787.160155,438.013021 786.984376,438 786.867188,438 C786.749999,438 786.587241,438.013021 786.378906,438.039062 C786.170572,438.065104 786.014323,438.078125 785.910156,438.078125 C784.686192,438.078125 784.074219,437.752607 784.074219,437.101562 Z" id="f(x)" fill="#37C3BE"></path>
        <path d="M510.578125,425.410156 C510.578125,424.951821 511.108068,424.192714 512.167969,423.132812 L536.875,400.058594 C538.278653,398.769525 539.395829,397.781253 540.226562,397.09375 L524.628906,372.34375 C524.285155,371.77083 524.113281,371.248049 524.113281,370.775391 C524.113281,370.302732 524.199218,369.808596 524.371094,369.292969 C524.772137,367.602856 525.187498,366.628908 525.617188,366.371094 C525.960939,366.084634 526.548173,365.941406 527.378906,365.941406 L581.949219,365.941406 C583.582039,365.941406 584.398438,366.643222 584.398438,368.046875 C584.398438,368.218751 584.298178,369.171215 584.097656,370.904297 C583.897134,372.637378 583.61784,374.86457 583.259766,377.585938 C582.901691,380.307305 582.665365,382.283848 582.550781,383.515625 C582.378905,384.69011 582.099611,385.442056 581.712891,385.771484 C581.32617,386.100913 580.674484,386.265625 579.757812,386.265625 L577.78125,386.265625 C576.148429,386.265625 575.332031,385.563809 575.332031,384.160156 C575.332031,384.102864 575.453775,383.057302 575.697266,381.023438 C575.940756,378.989573 576.0625,377.328131 576.0625,376.039062 C576.0625,375.036453 575.955079,374.305992 575.740234,373.847656 C575.52539,373.389321 575.303387,373.131511 575.074219,373.074219 C574.845051,373.016927 574.315108,372.945313 573.484375,372.859375 C570.018212,372.630207 565.707057,372.515625 560.550781,372.515625 L535.371094,372.515625 L549.121094,394.257812 C549.779951,395.260422 550.095052,395.962238 550.066406,396.363281 C550.066406,396.821617 549.507818,397.623692 548.390625,398.769531 L525.617188,420.039062 L548.132812,420.039062 C557.356817,419.924479 562.441402,419.695314 563.386719,419.351562 C563.787762,419.179687 564.1888,418.821617 564.589844,418.277344 C565.649745,416.759107 567.210927,413.393255 569.273438,408.179688 C569.789065,406.947911 570.634109,406.332031 571.808594,406.332031 L574,406.332031 C575.632821,406.332031 576.463542,406.890619 576.492188,408.007812 C576.492188,408.408856 574.401063,414.094997 570.21875,425.066406 C569.93229,425.839848 569.595705,426.355467 569.208984,426.613281 C568.822264,426.871095 568.227869,427 567.425781,427 L512.941406,427 C511.365878,427 510.578125,426.470057 510.578125,425.410156 Z" id="" fill="#37C3BE"></path>
        <path d="M375.283203,300.516602 C375.340495,299.900713 375.487304,299.535482 375.723633,299.420898 C375.809571,299.377929 375.942056,299.352865 376.121094,299.345703 L378.720703,299.345703 L381.223633,289.269531 C380.185216,289.914066 379.239913,290.239909 378.387695,290.24707 C378.022459,290.24707 377.839844,290.100262 377.839844,289.806641 C377.839844,289.677734 377.882812,289.462892 377.96875,289.162109 C378.040365,288.897134 378.124511,288.736003 378.221191,288.678711 C378.317872,288.621419 378.527342,288.578451 378.849609,288.549805 C379.171877,288.521159 379.494139,288.445964 379.816406,288.324219 C380.962245,287.901691 381.989904,287.096035 382.899414,285.907227 C383.092774,285.670897 383.289713,285.552734 383.490234,285.552734 C383.812502,285.552734 383.973633,285.692381 383.973633,285.97168 C383.973633,286.086264 383.966471,286.16862 383.952148,286.21875 L380.987305,298.035156 C380.958659,298.178386 380.906739,298.396808 380.831543,298.69043 C380.756347,298.984051 380.704427,299.202473 380.675781,299.345703 L383.02832,299.345703 C383.465171,299.345703 383.683594,299.499673 383.683594,299.807617 C383.683594,300.101238 383.604818,300.409178 383.447266,300.731445 C383.347005,300.910483 383.157228,301 382.87793,301 L376.035156,301 C375.533852,301 375.283203,300.838869 375.283203,300.516602 Z" id="1" fill="#37C3BE"></path>
        <path d="M373.897461,431.957031 C373.897461,431.792317 373.978027,431.509442 374.13916,431.108398 C374.300294,430.707355 374.541991,430.227542 374.864258,429.668945 C375.186525,429.110349 375.662757,428.523115 376.292969,427.907227 C376.92318,427.291338 377.628577,426.764976 378.40918,426.328125 C378.74577,426.134765 379.266761,425.880535 379.972168,425.56543 C380.677575,425.250324 381.250486,424.97103 381.690918,424.727539 C382.13135,424.484048 382.59684,424.168947 383.087402,423.782227 C383.577965,423.395506 383.946776,422.926435 384.193848,422.375 C384.440919,421.823565 384.564453,421.196944 384.564453,420.495117 C384.564453,419.628576 384.304853,419.019859 383.785645,418.668945 C383.266436,418.318032 382.634444,418.142578 381.889648,418.142578 C380.686517,418.142578 379.662439,418.600907 378.817383,419.517578 C377.972327,420.434249 377.549805,421.207679 377.549805,421.837891 C377.549805,422.102866 377.675129,422.235352 377.925781,422.235352 C378.291017,422.235352 378.6652,422.007978 379.04834,421.553223 C379.43148,421.098468 379.623047,420.688478 379.623047,420.323242 C379.623047,420.194335 379.578288,420.054688 379.48877,419.904297 C379.399251,419.753905 379.354492,419.650065 379.354492,419.592773 C379.354492,419.463867 379.529946,419.259767 379.880859,418.980469 C380.231773,418.70117 380.468098,418.561523 380.589844,418.561523 C380.733074,418.561523 380.892414,418.719074 381.067871,419.03418 C381.243328,419.349285 381.331055,419.68229 381.331055,420.033203 C381.331055,420.813806 380.953292,421.653479 380.197754,422.552246 C379.442216,423.451014 378.566737,423.900391 377.571289,423.900391 C377.041338,423.900391 376.600913,423.732098 376.25,423.395508 C375.899087,423.058918 375.723633,422.625654 375.723633,422.095703 C375.723633,421.623045 375.877603,421.073408 376.185547,420.446777 C376.493491,419.820147 376.916013,419.206058 377.453125,418.604492 C377.990237,418.002927 378.67594,417.496259 379.510254,417.084473 C380.344568,416.672687 381.223628,416.466797 382.147461,416.466797 C382.663089,416.466797 383.159015,416.529459 383.635254,416.654785 C384.111493,416.780111 384.580564,416.98242 385.04248,417.261719 C385.504397,417.541017 385.878579,417.954587 386.165039,418.502441 C386.451499,419.050296 386.594727,419.700192 386.594727,420.452148 C386.594727,421.211267 386.45866,421.914873 386.186523,422.562988 C385.914387,423.211104 385.579592,423.746417 385.182129,424.168945 C384.784666,424.591473 384.297692,424.997882 383.721191,425.388184 C383.144691,425.778485 382.612958,426.086425 382.125977,426.312012 C381.638995,426.537599 381.100101,426.790038 380.509277,427.069336 C379.918454,427.348634 379.4834,427.570637 379.204102,427.735352 C378.559567,428.114911 377.9043,428.634111 377.238281,429.292969 C377.811201,429.335938 378.618647,429.507811 379.660645,429.808594 C380.702642,430.109377 381.510088,430.259766 382.083008,430.259766 C382.612958,430.259766 383.116046,430.07715 383.592285,429.711914 C384.068525,429.346678 384.417642,428.856123 384.639648,428.240234 C384.711263,428.046874 384.779297,427.928711 384.84375,427.885742 C384.908203,427.842773 385.037108,427.821289 385.230469,427.821289 L385.799805,427.821289 C386.222333,427.821289 386.433594,427.917968 386.433594,428.111328 C386.433594,428.333334 386.324383,428.659178 386.105957,429.088867 C385.887531,429.518557 385.595705,429.975095 385.230469,430.458496 C384.865233,430.941897 384.367516,431.360838 383.737305,431.715332 C383.107093,432.069826 382.444665,432.24707 381.75,432.24707 C381.119789,432.24707 380.213873,432.026858 379.032227,431.586426 C377.85058,431.145994 377.084312,430.925781 376.733398,430.925781 C376.604492,430.925781 376.504232,430.932943 376.432617,430.947266 C376.196288,431.004558 375.990398,431.215818 375.814941,431.581055 C375.639485,431.946291 375.544596,432.136068 375.530273,432.150391 C375.444336,432.207683 375.297527,432.239909 375.089844,432.24707 L374.466797,432.24707 C374.087238,432.24707 373.897461,432.150392 373.897461,431.957031 Z" id="2" fill="#37C3BE"></path>
        <path d="M372.817871,526.006836 C372.817871,525.906575 372.880533,525.682782 373.005859,525.335449 C373.131186,524.988117 373.30843,524.59424 373.537598,524.153809 C373.766765,523.713377 374.096189,523.324871 374.525879,522.988281 C374.955569,522.651691 375.435381,522.483398 375.965332,522.483398 C376.509606,522.483398 377.019854,522.630207 377.496094,522.923828 C377.972333,523.217449 378.278482,523.679359 378.414551,524.30957 C379.56039,523.092116 380.849439,522.483398 382.281738,522.483398 C383.133956,522.483398 383.850095,522.674966 384.430176,523.058105 C385.010257,523.441245 385.300293,524.087561 385.300293,524.99707 C385.300293,525.791996 385.02816,526.943189 384.483887,528.450684 C383.939613,529.958178 383.66748,530.762044 383.66748,530.862305 C383.66748,531.041342 383.722981,531.18636 383.833984,531.297363 C383.944988,531.408366 384.086425,531.463867 384.258301,531.463867 C384.580568,531.463867 384.895669,531.297365 385.203613,530.964355 C385.511558,530.631346 385.755045,530.203453 385.934082,529.680664 C385.991374,529.487304 386.064778,529.372722 386.154297,529.336914 C386.243816,529.301107 386.456867,529.283203 386.793457,529.283203 L387.072754,529.283203 C387.495282,529.283203 387.710124,529.387043 387.717285,529.594727 C387.717285,529.773764 387.633139,530.045897 387.464844,530.411133 C387.296549,530.776369 387.062013,531.163084 386.76123,531.571289 C386.460448,531.979494 386.055829,532.337564 385.547363,532.645508 C385.038897,532.953452 384.501793,533.107422 383.936035,533.107422 C383.305824,533.107422 382.774091,532.928387 382.34082,532.570312 C381.90755,532.212238 381.690918,531.739586 381.690918,531.152344 C381.690918,530.887368 381.968422,529.999357 382.523438,528.488281 C383.078453,526.977206 383.355957,525.935224 383.355957,525.362305 C383.355957,524.560217 382.894048,524.15918 381.970215,524.15918 L381.94873,524.15918 C381.189612,524.15918 380.498538,524.411619 379.875488,524.916504 C379.252438,525.421389 378.752932,526.065914 378.376953,526.850098 C378.000975,527.634281 377.693035,528.396969 377.453125,529.138184 C377.213215,529.879398 377.012696,530.586585 376.851562,531.259766 C376.690429,531.932946 376.584798,532.323242 376.534668,532.430664 C376.326985,532.881838 375.983238,533.107422 375.503418,533.107422 C375.281412,533.107422 375.093425,533.037598 374.939453,532.897949 C374.785481,532.7583 374.708496,532.581056 374.708496,532.366211 C374.708496,532.201497 374.733561,532.047527 374.783691,531.904297 L376.405762,525.362305 C376.448731,525.19759 376.470215,525.050782 376.470215,524.921875 C376.470215,524.685546 376.389649,524.49935 376.228516,524.363281 C376.067382,524.227213 375.893718,524.15918 375.70752,524.15918 C375.442544,524.15918 375.233074,524.31315 375.079102,524.621094 C374.925129,524.929038 374.799805,525.262042 374.703125,525.620117 C374.606445,525.978192 374.522299,526.185872 374.450684,526.243164 C374.393392,526.286133 374.253745,526.307617 374.031738,526.307617 L373.344238,526.307617 C372.993325,526.307617 372.817871,526.207358 372.817871,526.006836 Z" id="n" fill="#37C3BE"></path>
    </g>
</svg>