<?xml version="1.0" encoding="UTF-8"?>
<svg width="421px" height="230px" viewBox="0 0 421 230" version="1.1" xmlns="http://www.w3.org/2000/svg" xmlns:xlink="http://www.w3.org/1999/xlink">
    <!-- Generator: Sketch 51.2 (57519) - http://www.bohemiancoding.com/sketch -->
    <title>ML-training set</title>
    <desc>Created with Sketch.</desc>
    <defs></defs>
    <g id="ML-training-set" stroke="none" stroke-width="1" fill="none" fill-rule="evenodd">
        <rect fill="#FFFFFF" x="0" y="0" width="421" height="230"></rect>
        <rect id="Rectangle" stroke="#000000" stroke-width="3" fill="#4C7EF3" fill-rule="nonzero" x="85.5" y="97.5" width="47" height="47"></rect>
        <rect id="Rectangle-Copy" stroke="#000000" stroke-width="3" fill="#4C7EF3" fill-rule="nonzero" x="132.5" y="97.5" width="47" height="47"></rect>
        <rect id="Rectangle-Copy-2" stroke="#000000" stroke-width="3" fill="#4C7EF3" fill-rule="nonzero" x="179.5" y="97.5" width="47" height="47"></rect>
        <rect id="Rectangle-Copy-3" stroke="#000000" stroke-width="3" fill="#4C7EF3" fill-rule="nonzero" x="226.5" y="97.5" width="47" height="47"></rect>
        <rect id="Rectangle-Copy-4" stroke="#000000" stroke-width="3" fill="#37C3BE" fill-rule="nonzero" x="288.5" y="97.5" width="47" height="47"></rect>
        <g id="Group" transform="translate(83.000000, 152.000000)" stroke="#000000" stroke-linecap="round" stroke-width="2">
            <path d="M2.84217094e-14,29 C5.88064072e-14,16.8596136 8.79494435,16.8596136 43.3892757,16.8596136 C95,16.8596136 95,0 95,0" id="Path-2" transform="translate(47.500000, 14.500000) scale(-1, 1) rotate(-180.000000) translate(-47.500000, -14.500000) "></path>
            <path d="M96,29 C96,16.8596136 104.794944,16.8596136 139.389276,16.8596136 C191,16.8596136 191,0 191,0" id="Path-2" transform="translate(143.500000, 14.500000) rotate(-180.000000) translate(-143.500000, -14.500000) "></path>
        </g>
        <g id="Group-Copy-2" transform="translate(211.000000, 69.228916) scale(1, -1) translate(-211.000000, -69.228916) translate(85.000000, 50.000000)" stroke="#000000" stroke-linecap="round" stroke-width="2">
            <path d="M2.84217094e-14,38.4578313 C6.85595677e-14,22.358075 11.6180267,22.358075 57.3167655,22.358075 C125.493976,22.358075 125.493976,0 125.493976,0" id="Path-2" transform="translate(62.746988, 19.228916) scale(-1, 1) rotate(-180.000000) translate(-62.746988, -19.228916) "></path>
            <path d="M126.506024,38.4578313 C126.506024,22.358075 138.124051,22.358075 183.82279,22.358075 C252,22.358075 252,0 252,0" id="Path-2" transform="translate(189.253012, 19.228916) rotate(-180.000000) translate(-189.253012, -19.228916) "></path>
        </g>
        <g id="Group-2" transform="translate(288.000000, 152.000000)" stroke="#000000" stroke-linecap="round" stroke-width="2">
            <g id="Group-Copy">
                <path d="M1.42108547e-14,20 C3.5839387e-14,9.86465019 5.76026786,9.86465019 11.7526462,9.86465019 C23.1428571,9.86465019 24,-5.68434189e-14 24,-5.68434189e-14" id="Path-2" transform="translate(12.000000, 10.000000) scale(-1, 1) rotate(-180.000000) translate(-12.000000, -10.000000) "></path>
            </g>
            <g id="Group-Copy" transform="translate(36.000000, 10.000000) scale(-1, 1) translate(-36.000000, -10.000000) translate(24.000000, 0.000000)">
                <path d="M1.42108547e-14,20 C3.5839387e-14,9.86465019 5.76026786,9.86465019 11.7526462,9.86465019 C23.1428571,9.86465019 24,-5.68434189e-14 24,-5.68434189e-14" id="Path-2" transform="translate(12.000000, 10.000000) scale(-1, 1) rotate(-180.000000) translate(-12.000000, -10.000000) "></path>
            </g>
        </g>
        <path d="M130.628906,205 L128.929688,205 L128.929688,192.050781 L124.486328,192.050781 L124.486328,190.556641 L135.072266,190.556641 L135.072266,192.050781 L130.628906,192.050781 L130.628906,205 Z M141.351562,194.189453 C141.644533,194.189453 141.911457,194.208984 142.152344,194.248047 L142.09375,195.751953 C141.794269,195.69987 141.533855,195.673828 141.3125,195.673828 C140.401037,195.673828 139.660485,195.991208 139.09082,196.625977 C138.521156,197.260745 138.236328,198.04687 138.236328,198.984375 L138.236328,205 L136.605469,205 C136.598958,198.424446 136.595703,194.853518 136.595703,194.287109 L137.953125,194.287109 L138.109375,196.210938 C138.480471,195.605466 138.952471,195.117189 139.525391,194.746094 C140.09831,194.374998 140.707028,194.189453 141.351562,194.189453 Z M146.927734,203.90625 C147.702478,203.90625 148.384437,203.693036 148.973633,203.266602 C149.562828,202.840167 149.942056,202.265629 150.111328,201.542969 L150.111328,199.736328 C150.078776,199.736328 149.881838,199.752604 149.520508,199.785156 C149.159178,199.817708 148.923178,199.83724 148.8125,199.84375 C147.399733,199.967449 146.415042,200.198566 145.858398,200.537109 C145.301755,200.875653 145.023438,201.419267 145.023438,202.167969 C145.023438,202.740888 145.192707,203.173827 145.53125,203.466797 C145.869793,203.759767 146.335283,203.90625 146.927734,203.90625 Z M150.472656,205 C150.375,204.583331 150.280599,204.134117 150.189453,203.652344 C149.597002,204.244795 149.040367,204.654947 148.519531,204.882812 C147.998695,205.110678 147.386722,205.224609 146.683594,205.224609 C145.680985,205.224609 144.875329,204.962568 144.266602,204.438477 C143.657875,203.914385 143.353516,203.160812 143.353516,202.177734 C143.353516,201.083979 143.768551,200.27344 144.598633,199.746094 C145.428715,199.218747 146.624992,198.889975 148.1875,198.759766 C148.402345,198.740234 148.726235,198.712565 149.15918,198.676758 C149.592125,198.64095 149.916015,198.613281 150.130859,198.59375 L150.130859,197.646484 C150.130859,196.891272 149.95508,196.331382 149.603516,195.966797 C149.251951,195.602212 148.698571,195.419922 147.943359,195.419922 C146.888667,195.419922 145.824224,195.680336 144.75,196.201172 C144.717448,196.123046 144.632813,195.896812 144.496094,195.522461 C144.359374,195.14811 144.28776,194.954427 144.28125,194.941406 C144.756513,194.674478 145.321286,194.461264 145.975586,194.301758 C146.629886,194.142252 147.29557,194.0625 147.972656,194.0625 C149.307298,194.0625 150.269203,194.353838 150.858398,194.936523 C151.447594,195.519209 151.742188,196.51041 151.742188,197.910156 L151.742188,205 L150.472656,205 Z M156.478516,194.287109 L156.478516,205 L154.837891,205 L154.837891,194.287109 L156.478516,194.287109 Z M156.478516,190.390625 L156.478516,192.324219 L154.837891,192.324219 L154.837891,190.390625 L156.478516,190.390625 Z M159.544922,205 L159.544922,194.287109 L160.912109,194.287109 L161.117188,195.820312 C161.540367,195.292966 162.069333,194.868166 162.704102,194.545898 C163.33887,194.223631 164.024085,194.0625 164.759766,194.0625 C165.996751,194.0625 166.911455,194.409176 167.503906,195.102539 C168.096357,195.795902 168.392578,196.861972 168.392578,198.300781 L168.392578,205 L166.761719,205 C166.761719,200.703104 166.758464,198.401694 166.751953,198.095703 C166.725911,197.18424 166.541994,196.516929 166.200195,196.09375 C165.858397,195.670571 165.287113,195.458984 164.486328,195.458984 C163.64648,195.458984 162.946617,195.660805 162.386719,196.064453 C161.82682,196.468101 161.46224,196.992184 161.292969,197.636719 C161.227864,198.072919 161.195312,198.574216 161.195312,199.140625 L161.195312,205 L159.544922,205 Z M173.03125,194.287109 L173.03125,205 L171.390625,205 L171.390625,194.287109 L173.03125,194.287109 Z M173.03125,190.390625 L173.03125,192.324219 L171.390625,192.324219 L171.390625,190.390625 L173.03125,190.390625 Z M176.097656,205 L176.097656,194.287109 L177.464844,194.287109 L177.669922,195.820312 C178.093101,195.292966 178.622067,194.868166 179.256836,194.545898 C179.891605,194.223631 180.576819,194.0625 181.3125,194.0625 C182.549485,194.0625 183.46419,194.409176 184.056641,195.102539 C184.649092,195.795902 184.945312,196.861972 184.945312,198.300781 L184.945312,205 L183.314453,205 C183.314453,200.703104 183.311198,198.401694 183.304688,198.095703 C183.278646,197.18424 183.094728,196.516929 182.75293,196.09375 C182.411131,195.670571 181.839848,195.458984 181.039062,195.458984 C180.199215,195.458984 179.499352,195.660805 178.939453,196.064453 C178.379554,196.468101 178.014975,196.992184 177.845703,197.636719 C177.780599,198.072919 177.748047,198.574216 177.748047,199.140625 L177.748047,205 L176.097656,205 Z M191.820312,203.603516 C192.373701,203.603516 192.858722,203.50586 193.275391,203.310547 C193.692059,203.115233 194.017577,202.845054 194.251953,202.5 C194.486329,202.154946 194.660481,201.770835 194.774414,201.347656 C194.888347,200.924477 194.945312,200.462242 194.945312,199.960938 L194.945312,199.169922 C194.945312,198.649086 194.886719,198.168948 194.769531,197.729492 C194.652343,197.290037 194.471681,196.896161 194.227539,196.547852 C193.983397,196.199543 193.65788,195.927735 193.250977,195.732422 C192.844073,195.537108 192.370445,195.439453 191.830078,195.439453 C191.380857,195.439453 190.972333,195.524088 190.604492,195.693359 C190.236652,195.862631 189.93392,196.085611 189.696289,196.362305 C189.458658,196.638999 189.256837,196.961261 189.09082,197.329102 C188.924804,197.696942 188.80599,198.06966 188.734375,198.447266 C188.66276,198.824872 188.626953,199.205727 188.626953,199.589844 C188.626953,199.96745 188.666015,200.341795 188.744141,200.712891 C188.822266,201.083986 188.945963,201.445311 189.115234,201.796875 C189.284506,202.148439 189.489582,202.456053 189.730469,202.719727 C189.971355,202.9834 190.272459,203.196614 190.633789,203.359375 C190.995119,203.522136 191.390623,203.603516 191.820312,203.603516 Z M189.310547,209.902344 L189.164062,208.427734 L191.15625,208.427734 C191.709638,208.427734 192.191404,208.388672 192.601562,208.310547 C193.011721,208.232421 193.353514,208.103842 193.626953,207.924805 C193.900392,207.745767 194.121744,207.547202 194.291016,207.329102 C194.460287,207.111002 194.588867,206.827801 194.676758,206.479492 C194.764649,206.131183 194.823242,205.786135 194.852539,205.444336 C194.881836,205.102537 194.896484,204.684247 194.896484,204.189453 L194.896484,203.242188 C194.505857,203.802086 194.053388,204.233397 193.539062,204.536133 C193.024737,204.838869 192.370447,204.990234 191.576172,204.990234 C190.96419,204.990234 190.399417,204.884441 189.881836,204.672852 C189.364255,204.461262 188.928062,204.179689 188.573242,203.828125 C188.218423,203.476561 187.915691,203.069664 187.665039,202.607422 C187.414387,202.14518 187.232097,201.666669 187.118164,201.171875 C187.004231,200.677081 186.947266,200.179039 186.947266,199.677734 C186.947266,198.89648 187.043293,198.173831 187.235352,197.509766 C187.42741,196.8457 187.712238,196.253258 188.089844,195.732422 C188.46745,195.211586 188.963864,194.803061 189.579102,194.506836 C190.194339,194.21061 190.899085,194.0625 191.693359,194.0625 C192.396488,194.0625 193.010089,194.19759 193.53418,194.467773 C194.058271,194.737957 194.528644,195.152992 194.945312,195.712891 L194.945312,194.287109 L196.537109,194.287109 L196.537109,204.228516 C196.537109,204.684247 196.525716,205.083006 196.50293,205.424805 C196.480143,205.766603 196.424805,206.145831 196.336914,206.5625 C196.249023,206.979169 196.130209,207.337238 195.980469,207.636719 C195.830728,207.936199 195.62077,208.237303 195.350586,208.540039 C195.080402,208.842775 194.75814,209.086913 194.383789,209.272461 C194.009438,209.458009 193.545576,209.609374 192.992188,209.726562 C192.438799,209.843751 191.813806,209.902344 191.117188,209.902344 L189.310547,209.902344 Z M204.271484,202.617188 C205.775398,203.359379 207.38671,203.730469 209.105469,203.730469 C211.221365,203.730469 212.279297,202.766937 212.279297,200.839844 C212.279297,200.214841 212.111655,199.708661 211.776367,199.321289 C211.441079,198.933917 210.830734,198.629558 209.945312,198.408203 L207.074219,197.685547 C204.880197,197.132159 203.783203,195.960295 203.783203,194.169922 C203.783203,192.796217 204.255204,191.775719 205.199219,191.108398 C206.143234,190.441077 207.448559,190.107422 209.115234,190.107422 C209.987635,190.107422 210.804684,190.201822 211.566406,190.390625 C212.328129,190.579428 212.966143,190.833332 213.480469,191.152344 L212.992188,192.529297 C212.555987,192.28841 211.978194,192.073569 211.258789,191.884766 C210.539384,191.695963 209.811853,191.601562 209.076172,191.601562 C206.719389,191.601562 205.541016,192.418612 205.541016,194.052734 C205.541016,194.606123 205.721678,195.050454 206.083008,195.385742 C206.444338,195.72103 206.986325,195.976562 207.708984,196.152344 L210.453125,196.816406 C211.625006,197.096356 212.513669,197.543942 213.119141,198.15918 C213.724612,198.774417 214.027344,199.648432 214.027344,200.78125 C214.027344,202.252612 213.576502,203.360999 212.674805,204.106445 C211.773107,204.851892 210.547534,205.224609 208.998047,205.224609 C207.839187,205.224609 206.808924,205.105795 205.907227,204.868164 C205.005529,204.630533 204.291018,204.34896 203.763672,204.023438 L204.271484,202.617188 Z M220.433594,195.410156 C219.600256,195.410156 218.919925,195.70475 218.392578,196.293945 C217.865232,196.883141 217.55599,197.688797 217.464844,198.710938 L223.119141,198.710938 C223.119141,197.649734 222.879885,196.834313 222.401367,196.264648 C221.922849,195.694984 221.266931,195.410156 220.433594,195.410156 Z M220.755859,205.224609 C219.199862,205.224609 217.974288,204.729823 217.079102,203.740234 C216.183915,202.750646 215.736328,201.396493 215.736328,199.677734 C215.736328,198.01757 216.169267,196.671555 217.035156,195.639648 C217.901046,194.607742 219.040358,194.082031 220.453125,194.0625 C221.781257,194.0625 222.834306,194.516597 223.612305,195.424805 C224.390303,196.333012 224.779297,197.545565 224.779297,199.0625 C224.779297,199.140625 224.777669,199.283853 224.774414,199.492188 C224.771159,199.700522 224.769531,199.85026 224.769531,199.941406 L217.416016,199.941406 C217.435547,201.15886 217.749671,202.107744 218.358398,202.788086 C218.967125,203.468428 219.785802,203.808594 220.814453,203.808594 C221.947271,203.808594 223.083328,203.509118 224.222656,202.910156 L224.476562,204.228516 C223.389317,204.892581 222.149096,205.224609 220.755859,205.224609 Z M230.462891,205.195312 C229.408198,205.195312 228.659507,204.938154 228.216797,204.423828 C227.774086,203.909503 227.539714,203.079433 227.513672,201.933594 L227.513672,195.498047 L225.921875,195.498047 L225.990234,194.423828 L227.503906,194.287109 L228.060547,191.835938 L229.134766,191.796875 L229.134766,194.287109 L232.113281,194.287109 L232.113281,195.498047 L229.134766,195.498047 L229.134766,201.640625 C229.134766,202.454431 229.258462,203.027342 229.505859,203.359375 C229.753256,203.691408 230.176429,203.857422 230.775391,203.857422 C230.990235,203.857422 231.455726,203.805339 232.171875,203.701172 L232.240234,204.990234 C231.465491,205.126954 230.873049,205.195312 230.462891,205.195312 Z" id="Training-Set" fill="#000000"></path>
        <path d="M187.213867,29.8125 C187.213867,27.7942607 186.693039,26.3261765 185.651367,25.4082031 C184.609695,24.4902298 183.092783,24.03125 181.100586,24.03125 L178.834961,24.03125 L178.834961,35.5253906 L181.383789,35.5253906 C183.28484,35.5253906 184.731766,35.0452522 185.724609,34.0849609 C186.717453,33.1246697 187.213867,31.7005303 187.213867,29.8125 Z M189.020508,29.7636719 C189.020508,32.113944 188.353197,33.9075459 187.018555,35.1445312 C185.683913,36.3815166 183.821952,37 181.432617,37 L177.145508,37 L177.145508,22.5566406 L181.149414,22.5566406 C182.353847,22.5566406 183.43131,22.6982408 184.381836,22.9814453 C185.332362,23.2646499 186.157549,23.6943331 186.857422,24.2705078 C187.557295,24.8466826 188.092772,25.5986282 188.463867,26.5263672 C188.834963,27.4541062 189.020508,28.533197 189.020508,29.7636719 Z M194.606445,35.90625 C195.381189,35.90625 196.063148,35.693036 196.652344,35.2666016 C197.241539,34.8401671 197.620767,34.2656286 197.790039,33.5429688 L197.790039,31.7363281 C197.757487,31.7363281 197.560549,31.752604 197.199219,31.7851562 C196.837889,31.8177085 196.601889,31.8372396 196.491211,31.84375 C195.078443,31.9674485 194.093753,32.198566 193.537109,32.5371094 C192.980466,32.8756527 192.702148,33.4192671 192.702148,34.1679688 C192.702148,34.7408883 192.871418,35.1738267 193.209961,35.4667969 C193.548504,35.7597671 194.013994,35.90625 194.606445,35.90625 Z M198.151367,37 C198.05371,36.5833313 197.95931,36.134117 197.868164,35.6523438 C197.275713,36.2447946 196.719078,36.6549468 196.198242,36.8828125 C195.677406,37.1106782 195.065433,37.2246094 194.362305,37.2246094 C193.359696,37.2246094 192.55404,36.9625677 191.945312,36.4384766 C191.336585,35.9143854 191.032227,35.1608122 191.032227,34.1777344 C191.032227,33.0839789 191.447261,32.2734401 192.277344,31.7460938 C193.107426,31.2187474 194.303703,30.8899746 195.866211,30.7597656 C196.081056,30.7402343 196.404946,30.7125653 196.837891,30.6767578 C197.270835,30.6409503 197.594725,30.6132813 197.80957,30.59375 L197.80957,29.6464844 C197.80957,28.8912723 197.633791,28.331382 197.282227,27.9667969 C196.930662,27.6022117 196.377282,27.4199219 195.62207,27.4199219 C194.567378,27.4199219 193.502935,27.6803359 192.428711,28.2011719 C192.396159,28.1230465 192.311524,27.8968118 192.174805,27.5224609 C192.038085,27.1481101 191.966471,26.9544271 191.959961,26.9414062 C192.435224,26.6744778 192.999997,26.4612638 193.654297,26.3017578 C194.308597,26.1422518 194.97428,26.0625 195.651367,26.0625 C196.986009,26.0625 197.947914,26.3538382 198.537109,26.9365234 C199.126305,27.5192086 199.420898,28.5104097 199.420898,29.9101562 L199.420898,37 L198.151367,37 Z M205.651367,37.1953125 C204.596674,37.1953125 203.847984,36.9381536 203.405273,36.4238281 C202.962563,35.9095026 202.72819,35.0794328 202.702148,33.9335938 L202.702148,27.4980469 L201.110352,27.4980469 L201.178711,26.4238281 L202.692383,26.2871094 L203.249023,23.8359375 L204.323242,23.796875 L204.323242,26.2871094 L207.301758,26.2871094 L207.301758,27.4980469 L204.323242,27.4980469 L204.323242,33.640625 C204.323242,34.4544312 204.446939,35.0273421 204.694336,35.359375 C204.941733,35.6914079 205.364906,35.8574219 205.963867,35.8574219 C206.178712,35.8574219 206.644202,35.8053391 207.360352,35.7011719 L207.428711,36.9902344 C206.653967,37.1269538 206.061525,37.1953125 205.651367,37.1953125 Z M212.262695,35.90625 C213.037439,35.90625 213.719398,35.693036 214.308594,35.2666016 C214.897789,34.8401671 215.277017,34.2656286 215.446289,33.5429688 L215.446289,31.7363281 C215.413737,31.7363281 215.216799,31.752604 214.855469,31.7851562 C214.494139,31.8177085 214.258139,31.8372396 214.147461,31.84375 C212.734693,31.9674485 211.750003,32.198566 211.193359,32.5371094 C210.636716,32.8756527 210.358398,33.4192671 210.358398,34.1679688 C210.358398,34.7408883 210.527668,35.1738267 210.866211,35.4667969 C211.204754,35.7597671 211.670244,35.90625 212.262695,35.90625 Z M215.807617,37 C215.70996,36.5833313 215.61556,36.134117 215.524414,35.6523438 C214.931963,36.2447946 214.375328,36.6549468 213.854492,36.8828125 C213.333656,37.1106782 212.721683,37.2246094 212.018555,37.2246094 C211.015946,37.2246094 210.21029,36.9625677 209.601562,36.4384766 C208.992835,35.9143854 208.688477,35.1608122 208.688477,34.1777344 C208.688477,33.0839789 209.103511,32.2734401 209.933594,31.7460938 C210.763676,31.2187474 211.959953,30.8899746 213.522461,30.7597656 C213.737306,30.7402343 214.061196,30.7125653 214.494141,30.6767578 C214.927085,30.6409503 215.250975,30.6132813 215.46582,30.59375 L215.46582,29.6464844 C215.46582,28.8912723 215.290041,28.331382 214.938477,27.9667969 C214.586912,27.6022117 214.033532,27.4199219 213.27832,27.4199219 C212.223628,27.4199219 211.159185,27.6803359 210.084961,28.2011719 C210.052409,28.1230465 209.967774,27.8968118 209.831055,27.5224609 C209.694335,27.1481101 209.622721,26.9544271 209.616211,26.9414062 C210.091474,26.6744778 210.656247,26.4612638 211.310547,26.3017578 C211.964847,26.1422518 212.63053,26.0625 213.307617,26.0625 C214.642259,26.0625 215.604164,26.3538382 216.193359,26.9365234 C216.782555,27.5192086 217.077148,28.5104097 217.077148,29.9101562 L217.077148,37 L215.807617,37 Z M223.083008,37.2246094 C222.353837,37.2246094 221.681644,37.1464852 221.066406,36.9902344 C220.451169,36.8339836 219.951499,36.6321627 219.567383,36.3847656 L219.772461,35.0078125 C220.859706,35.5872425 221.927404,35.8769531 222.975586,35.8769531 C224.564136,35.8769531 225.381185,35.3170629 225.426758,34.1972656 C225.426758,33.7220028 225.257489,33.3476576 224.918945,33.0742188 C224.580402,32.8007799 223.916346,32.4947934 222.926758,32.15625 L222.116211,31.8730469 C221.178706,31.5605453 220.509768,31.1731794 220.109375,30.7109375 C219.708982,30.2486956 219.505534,29.6725295 219.499023,28.9824219 C219.499023,28.1425739 219.835934,27.4459663 220.509766,26.8925781 C221.183597,26.3391899 222.106439,26.0625 223.27832,26.0625 C224.489264,26.0625 225.592768,26.2968727 226.588867,26.765625 L226.110352,28.015625 C225.101232,27.5989563 224.157231,27.390625 223.27832,27.390625 C222.594723,27.390625 222.059247,27.5257148 221.671875,27.7958984 C221.284503,28.0660821 221.09082,28.4453101 221.09082,28.9335938 C221.09082,29.3502625 221.230793,29.6692697 221.510742,29.890625 C221.790692,30.1119803 222.350582,30.365884 223.19043,30.6523438 C223.405275,30.7304691 223.675454,30.8216141 224.000977,30.9257812 C225.081711,31.2773455 225.846677,31.6923804 226.295898,32.1708984 C226.745119,32.6494165 226.969727,33.2955688 226.969727,34.109375 C226.956706,35.0989633 226.601892,35.8655572 225.905273,36.4091797 C225.208655,36.9528022 224.26791,37.2246094 223.083008,37.2246094 Z M233.405273,27.4101562 C232.571936,27.4101562 231.891604,27.7047497 231.364258,28.2939453 C230.836911,28.883141 230.52767,29.688797 230.436523,30.7109375 L236.09082,30.7109375 C236.09082,29.6497343 235.851565,28.8343127 235.373047,28.2646484 C234.894529,27.6949841 234.238611,27.4101562 233.405273,27.4101562 Z M233.727539,37.2246094 C232.171542,37.2246094 230.945968,36.7298227 230.050781,35.7402344 C229.155594,34.7506461 228.708008,33.396493 228.708008,31.6777344 C228.708008,30.0175698 229.140946,28.6715546 230.006836,27.6396484 C230.872726,26.6077422 232.012037,26.0820313 233.424805,26.0625 C234.752936,26.0625 235.805986,26.516597 236.583984,27.4248047 C237.361983,28.3330124 237.750977,29.5455653 237.750977,31.0625 C237.750977,31.1406254 237.749349,31.2838531 237.746094,31.4921875 C237.742839,31.7005219 237.741211,31.85026 237.741211,31.9414062 L230.387695,31.9414062 C230.407227,33.1588603 230.721351,34.107744 231.330078,34.7880859 C231.938805,35.4684279 232.757482,35.8085938 233.786133,35.8085938 C234.918951,35.8085938 236.055007,35.5091176 237.194336,34.9101562 L237.448242,36.2285156 C236.360997,36.8925814 235.120775,37.2246094 233.727539,37.2246094 Z M243.43457,37.1953125 C242.379878,37.1953125 241.631187,36.9381536 241.188477,36.4238281 C240.745766,35.9095026 240.511393,35.0794328 240.485352,33.9335938 L240.485352,27.4980469 L238.893555,27.4980469 L238.961914,26.4238281 L240.475586,26.2871094 L241.032227,23.8359375 L242.106445,23.796875 L242.106445,26.2871094 L245.084961,26.2871094 L245.084961,27.4980469 L242.106445,27.4980469 L242.106445,33.640625 C242.106445,34.4544312 242.230142,35.0273421 242.477539,35.359375 C242.724936,35.6914079 243.148109,35.8574219 243.74707,35.8574219 C243.961915,35.8574219 244.427405,35.8053391 245.143555,35.7011719 L245.211914,36.9902344 C244.437171,37.1269538 243.844729,37.1953125 243.43457,37.1953125 Z" id="Dataset" fill="#000000"></path>
        <path d="M281.451172,205 L279.751953,205 L279.751953,192.050781 L275.308594,192.050781 L275.308594,190.556641 L285.894531,190.556641 L285.894531,192.050781 L281.451172,192.050781 L281.451172,205 Z M291.578125,195.410156 C290.744787,195.410156 290.064456,195.70475 289.537109,196.293945 C289.009763,196.883141 288.700521,197.688797 288.609375,198.710938 L294.263672,198.710938 C294.263672,197.649734 294.024416,196.834313 293.545898,196.264648 C293.06738,195.694984 292.411462,195.410156 291.578125,195.410156 Z M291.900391,205.224609 C290.344393,205.224609 289.11882,204.729823 288.223633,203.740234 C287.328446,202.750646 286.880859,201.396493 286.880859,199.677734 C286.880859,198.01757 287.313798,196.671555 288.179688,195.639648 C289.045577,194.607742 290.184889,194.082031 291.597656,194.0625 C292.925788,194.0625 293.978837,194.516597 294.756836,195.424805 C295.534835,196.333012 295.923828,197.545565 295.923828,199.0625 C295.923828,199.140625 295.922201,199.283853 295.918945,199.492188 C295.91569,199.700522 295.914062,199.85026 295.914062,199.941406 L288.560547,199.941406 C288.580078,201.15886 288.894203,202.107744 289.50293,202.788086 C290.111657,203.468428 290.930333,203.808594 291.958984,203.808594 C293.091803,203.808594 294.227859,203.509118 295.367188,202.910156 L295.621094,204.228516 C294.533849,204.892581 293.293627,205.224609 291.900391,205.224609 Z M301.382812,205.224609 C300.653642,205.224609 299.981448,205.146485 299.366211,204.990234 C298.750973,204.833984 298.251304,204.632163 297.867188,204.384766 L298.072266,203.007812 C299.159511,203.587242 300.227208,203.876953 301.275391,203.876953 C302.86394,203.876953 303.680989,203.317063 303.726562,202.197266 C303.726562,201.722003 303.557293,201.347658 303.21875,201.074219 C302.880207,200.80078 302.216151,200.494793 301.226562,200.15625 L300.416016,199.873047 C299.478511,199.560545 298.809572,199.173179 298.40918,198.710938 C298.008787,198.248696 297.805339,197.672529 297.798828,196.982422 C297.798828,196.142574 298.135739,195.445966 298.80957,194.892578 C299.483402,194.33919 300.406244,194.0625 301.578125,194.0625 C302.789069,194.0625 303.892573,194.296873 304.888672,194.765625 L304.410156,196.015625 C303.401037,195.598956 302.457036,195.390625 301.578125,195.390625 C300.894528,195.390625 300.359051,195.525715 299.97168,195.795898 C299.584308,196.066082 299.390625,196.44531 299.390625,196.933594 C299.390625,197.350262 299.530598,197.66927 299.810547,197.890625 C300.090496,198.11198 300.650386,198.365884 301.490234,198.652344 C301.705079,198.730469 301.975259,198.821614 302.300781,198.925781 C303.381516,199.277346 304.146482,199.69238 304.595703,200.170898 C305.044924,200.649416 305.269531,201.295569 305.269531,202.109375 C305.25651,203.098963 304.901696,203.865557 304.205078,204.40918 C303.50846,204.952802 302.567714,205.224609 301.382812,205.224609 Z M310.914062,205.195312 C309.85937,205.195312 309.110679,204.938154 308.667969,204.423828 C308.225258,203.909503 307.990886,203.079433 307.964844,201.933594 L307.964844,195.498047 L306.373047,195.498047 L306.441406,194.423828 L307.955078,194.287109 L308.511719,191.835938 L309.585938,191.796875 L309.585938,194.287109 L312.564453,194.287109 L312.564453,195.498047 L309.585938,195.498047 L309.585938,201.640625 C309.585938,202.454431 309.709634,203.027342 309.957031,203.359375 C310.204428,203.691408 310.627601,203.857422 311.226562,203.857422 C311.441407,203.857422 311.906897,203.805339 312.623047,203.701172 L312.691406,204.990234 C311.916663,205.126954 311.324221,205.195312 310.914062,205.195312 Z M319.449219,202.617188 C320.953133,203.359379 322.564445,203.730469 324.283203,203.730469 C326.399099,203.730469 327.457031,202.766937 327.457031,200.839844 C327.457031,200.214841 327.28939,199.708661 326.954102,199.321289 C326.618813,198.933917 326.008468,198.629558 325.123047,198.408203 L322.251953,197.685547 C320.057932,197.132159 318.960938,195.960295 318.960938,194.169922 C318.960938,192.796217 319.432938,191.775719 320.376953,191.108398 C321.320968,190.441077 322.626294,190.107422 324.292969,190.107422 C325.165369,190.107422 325.982418,190.201822 326.744141,190.390625 C327.505863,190.579428 328.143878,190.833332 328.658203,191.152344 L328.169922,192.529297 C327.733722,192.28841 327.155928,192.073569 326.436523,191.884766 C325.717119,191.695963 324.989587,191.601562 324.253906,191.601562 C321.897124,191.601562 320.71875,192.418612 320.71875,194.052734 C320.71875,194.606123 320.899412,195.050454 321.260742,195.385742 C321.622072,195.72103 322.164059,195.976562 322.886719,196.152344 L325.630859,196.816406 C326.80274,197.096356 327.691403,197.543942 328.296875,198.15918 C328.902347,198.774417 329.205078,199.648432 329.205078,200.78125 C329.205078,202.252612 328.754236,203.360999 327.852539,204.106445 C326.950842,204.851892 325.725268,205.224609 324.175781,205.224609 C323.016921,205.224609 321.986658,205.105795 321.084961,204.868164 C320.183264,204.630533 319.468753,204.34896 318.941406,204.023438 L319.449219,202.617188 Z M335.611328,195.410156 C334.777991,195.410156 334.097659,195.70475 333.570312,196.293945 C333.042966,196.883141 332.733724,197.688797 332.642578,198.710938 L338.296875,198.710938 C338.296875,197.649734 338.05762,196.834313 337.579102,196.264648 C337.100584,195.694984 336.444666,195.410156 335.611328,195.410156 Z M335.933594,205.224609 C334.377596,205.224609 333.152023,204.729823 332.256836,203.740234 C331.361649,202.750646 330.914062,201.396493 330.914062,199.677734 C330.914062,198.01757 331.347001,196.671555 332.212891,195.639648 C333.07878,194.607742 334.218092,194.082031 335.630859,194.0625 C336.958991,194.0625 338.01204,194.516597 338.790039,195.424805 C339.568038,196.333012 339.957031,197.545565 339.957031,199.0625 C339.957031,199.140625 339.955404,199.283853 339.952148,199.492188 C339.948893,199.700522 339.947266,199.85026 339.947266,199.941406 L332.59375,199.941406 C332.613281,201.15886 332.927406,202.107744 333.536133,202.788086 C334.14486,203.468428 334.963537,203.808594 335.992188,203.808594 C337.125006,203.808594 338.261062,203.509118 339.400391,202.910156 L339.654297,204.228516 C338.567052,204.892581 337.32683,205.224609 335.933594,205.224609 Z M345.640625,205.195312 C344.585932,205.195312 343.837242,204.938154 343.394531,204.423828 C342.951821,203.909503 342.717448,203.079433 342.691406,201.933594 L342.691406,195.498047 L341.099609,195.498047 L341.167969,194.423828 L342.681641,194.287109 L343.238281,191.835938 L344.3125,191.796875 L344.3125,194.287109 L347.291016,194.287109 L347.291016,195.498047 L344.3125,195.498047 L344.3125,201.640625 C344.3125,202.454431 344.436197,203.027342 344.683594,203.359375 C344.930991,203.691408 345.354164,203.857422 345.953125,203.857422 C346.16797,203.857422 346.63346,203.805339 347.349609,203.701172 L347.417969,204.990234 C346.643225,205.126954 346.050783,205.195312 345.640625,205.195312 Z" id="Test-Set" fill="#000000"></path>
    </g>
</svg>